<svg width="182" height="33" viewBox="0 0 182 33" fill="none" xmlns="http://www.w3.org/2000/svg">
<path d="M35.875 32H30.113V19.358C30.113 17.552 29.7977 16.2333 29.167 15.402C28.565 14.5707 27.7193 14.155 26.63 14.155C25.4833 14.155 24.4083 14.5993 23.405 15.488C22.4017 16.348 21.685 17.4803 21.255 18.885V32H15.493V19.358C15.493 17.552 15.1777 16.2333 14.547 15.402C13.945 14.5707 13.0993 14.155 12.01 14.155C10.892 14.155 9.817 14.585 8.785 15.445C7.78167 16.305 7.065 17.4373 6.635 18.842V32H0.873V9.468H6.076V13.639C6.90733 12.177 8.03967 11.059 9.473 10.285C10.935 9.48233 12.5977 9.081 14.461 9.081C16.353 9.081 17.815 9.53966 18.847 10.457C19.879 11.3743 20.5383 12.5067 20.825 13.854C21.7423 12.306 22.9033 11.1307 24.308 10.328C25.7127 9.49667 27.318 9.081 29.124 9.081C30.5 9.081 31.6323 9.339 32.521 9.855C33.4097 10.371 34.0977 11.0447 34.585 11.876C35.0723 12.7073 35.402 13.6533 35.574 14.714C35.7747 15.7747 35.875 16.8497 35.875 17.939V32ZM51.3406 32.43C49.5346 32.43 47.9006 32.129 46.4386 31.527C44.9766 30.8963 43.7296 30.0507 42.6976 28.99C41.6656 27.9293 40.8629 26.6967 40.2896 25.292C39.7449 23.8873 39.4726 22.411 39.4726 20.863C39.4726 19.2577 39.7449 17.7527 40.2896 16.348C40.8342 14.9147 41.6226 13.6677 42.6546 12.607C43.6866 11.5177 44.9336 10.6577 46.3956 10.027C47.8862 9.39633 49.5489 9.081 51.3836 9.081C53.2182 9.081 54.8522 9.39633 56.2856 10.027C57.7476 10.6577 58.9802 11.5033 59.9836 12.564C61.0156 13.6247 61.7896 14.8573 62.3056 16.262C62.8502 17.6667 63.1226 19.1287 63.1226 20.648C63.1226 21.0207 63.1082 21.379 63.0796 21.723C63.0796 22.067 63.0509 22.3537 62.9936 22.583H45.5786C45.6646 23.4717 45.8796 24.26 46.2236 24.948C46.5676 25.636 47.0119 26.2237 47.5566 26.711C48.1012 27.1983 48.7176 27.571 49.4056 27.829C50.0936 28.087 50.8102 28.216 51.5556 28.216C52.7022 28.216 53.7772 27.9437 54.7806 27.399C55.8126 26.8257 56.5149 26.0803 56.8876 25.163L61.8326 26.539C61.0012 28.259 59.6682 29.678 57.8336 30.796C56.0276 31.8853 53.8632 32.43 51.3406 32.43ZM57.1886 18.842C57.0452 17.1507 56.4146 15.8033 55.2966 14.8C54.2072 13.768 52.8742 13.252 51.2976 13.252C50.5236 13.252 49.7926 13.3953 49.1046 13.682C48.4452 13.94 47.8576 14.3127 47.3416 14.8C46.8256 15.2873 46.3956 15.875 46.0516 16.563C45.7362 17.251 45.5499 18.0107 45.4926 18.842H57.1886ZM75.9638 32.43C74.4158 32.43 72.9824 32.129 71.6638 31.527C70.3451 30.925 69.2128 30.0937 68.2668 29.033C67.3208 27.9723 66.5754 26.7397 66.0308 25.335C65.5148 23.9017 65.2568 22.368 65.2568 20.734C65.2568 19.1 65.5004 17.5807 65.9878 16.176C66.5038 14.7713 67.2061 13.5387 68.0948 12.478C68.9834 11.4173 70.0441 10.586 71.2768 9.984C72.5094 9.382 73.8568 9.081 75.3188 9.081C76.9814 9.081 78.4721 9.48233 79.7908 10.285C81.1381 11.0877 82.1844 12.134 82.9298 13.424V0.609999H88.6918V25.378C88.6918 25.98 88.7921 26.41 88.9928 26.668C89.1934 26.926 89.5374 27.0693 90.0248 27.098V32C89.0214 32.2007 88.2044 32.301 87.5738 32.301C86.5418 32.301 85.6961 32.043 85.0368 31.527C84.3774 31.011 84.0048 30.3373 83.9188 29.506L83.7898 28.087C82.9584 29.5203 81.8261 30.6097 80.3928 31.355C78.9881 32.0717 77.5118 32.43 75.9638 32.43ZM77.4688 27.528C78.0134 27.528 78.5724 27.442 79.1458 27.27C79.7191 27.0693 80.2494 26.797 80.7368 26.453C81.2241 26.109 81.6541 25.7077 82.0268 25.249C82.4281 24.7903 82.7291 24.2887 82.9298 23.744V18.369C82.7004 17.7383 82.3708 17.165 81.9408 16.649C81.5394 16.1043 81.0664 15.6457 80.5218 15.273C80.0058 14.8717 79.4468 14.5563 78.8448 14.327C78.2714 14.0977 77.6981 13.983 77.1248 13.983C76.2648 13.983 75.4621 14.1693 74.7168 14.542C74.0001 14.9147 73.3838 15.4307 72.8678 16.09C72.3518 16.7207 71.9504 17.4517 71.6638 18.283C71.3771 19.1143 71.2338 19.9743 71.2338 20.863C71.2338 21.809 71.3914 22.6833 71.7068 23.486C72.0221 24.2887 72.4521 24.991 72.9968 25.593C73.5414 26.195 74.1864 26.668 74.9318 27.012C75.7058 27.356 76.5514 27.528 77.4688 27.528ZM92.9286 20.734C92.9286 19.1573 93.2009 17.6667 93.7456 16.262C94.2903 14.8573 95.0786 13.6247 96.1106 12.564C97.1426 11.5033 98.3896 10.6577 99.8516 10.027C101.314 9.39633 102.962 9.081 104.797 9.081C107.262 9.081 109.355 9.61133 111.075 10.672C112.823 11.7327 114.128 13.123 114.988 14.843L109.355 16.563C108.867 15.7317 108.222 15.101 107.42 14.671C106.617 14.2123 105.728 13.983 104.754 13.983C103.922 13.983 103.148 14.155 102.432 14.499C101.715 14.8143 101.084 15.273 100.54 15.875C100.024 16.4483 99.6079 17.1507 99.2926 17.982C99.0059 18.8133 98.8626 19.7307 98.8626 20.734C98.8626 21.7373 99.0203 22.6547 99.3356 23.486C99.6509 24.3173 100.067 25.034 100.583 25.636C101.127 26.238 101.758 26.711 102.475 27.055C103.191 27.3703 103.951 27.528 104.754 27.528C105.786 27.528 106.732 27.27 107.592 26.754C108.48 26.238 109.097 25.6073 109.441 24.862L115.074 26.582C114.3 28.302 113.024 29.7067 111.247 30.796C109.469 31.8853 107.334 32.43 104.84 32.43C103.005 32.43 101.357 32.1147 99.8946 31.484C98.4326 30.8533 97.1856 30.0077 96.1536 28.947C95.1216 27.8577 94.3189 26.6107 93.7456 25.206C93.2009 23.7727 92.9286 22.282 92.9286 20.734ZM124.768 32.43C123.679 32.43 122.661 32.258 121.715 31.914C120.769 31.5413 119.952 31.0397 119.264 30.409C118.576 29.7497 118.031 28.99 117.63 28.13C117.257 27.27 117.071 26.324 117.071 25.292C117.071 24.2313 117.3 23.2567 117.759 22.368C118.246 21.4507 118.906 20.6767 119.737 20.046C120.597 19.4153 121.615 18.928 122.79 18.584C123.965 18.2113 125.255 18.025 126.66 18.025C127.663 18.025 128.638 18.111 129.584 18.283C130.559 18.455 131.419 18.6987 132.164 19.014V17.724C132.164 16.2333 131.734 15.0867 130.874 14.284C130.043 13.4813 128.796 13.08 127.133 13.08C125.929 13.08 124.754 13.295 123.607 13.725C122.46 14.155 121.285 14.7857 120.081 15.617L118.318 11.962C121.213 10.0413 124.338 9.081 127.692 9.081C130.931 9.081 133.44 9.88366 135.217 11.489C137.023 13.0657 137.926 15.359 137.926 18.369V25.378C137.926 25.98 138.026 26.41 138.227 26.668C138.456 26.926 138.815 27.0693 139.302 27.098V32C138.327 32.2007 137.482 32.301 136.765 32.301C135.676 32.301 134.83 32.0573 134.228 31.57C133.655 31.0827 133.296 30.4377 133.153 29.635L133.024 28.388C132.021 29.7067 130.802 30.71 129.369 31.398C127.936 32.086 126.402 32.43 124.768 32.43ZM126.402 28.216C127.377 28.216 128.294 28.044 129.154 27.7C130.043 27.356 130.731 26.8973 131.218 26.324C131.849 25.8367 132.164 25.292 132.164 24.69V22.11C131.476 21.852 130.731 21.6513 129.928 21.508C129.125 21.336 128.351 21.25 127.606 21.25C126.115 21.25 124.897 21.594 123.951 22.282C123.005 22.9413 122.532 23.787 122.532 24.819C122.532 25.7937 122.905 26.6107 123.65 27.27C124.395 27.9007 125.313 28.216 126.402 28.216ZM156.727 14.456C154.978 14.4847 153.416 14.8287 152.039 15.488C150.664 16.1187 149.675 17.079 149.073 18.369V32H143.311V9.468H148.6V14.284C149.001 13.51 149.474 12.822 150.019 12.22C150.563 11.5893 151.151 11.0447 151.782 10.586C152.412 10.1273 153.043 9.78333 153.674 9.554C154.333 9.296 154.964 9.167 155.566 9.167C155.881 9.167 156.11 9.167 156.254 9.167C156.426 9.167 156.583 9.18133 156.727 9.21V14.456ZM169.255 32.43C167.449 32.43 165.815 32.129 164.353 31.527C162.891 30.8963 161.644 30.0507 160.612 28.99C159.58 27.9293 158.777 26.6967 158.204 25.292C157.659 23.8873 157.387 22.411 157.387 20.863C157.387 19.2577 157.659 17.7527 158.204 16.348C158.748 14.9147 159.537 13.6677 160.569 12.607C161.601 11.5177 162.848 10.6577 164.31 10.027C165.8 9.39633 167.463 9.081 169.298 9.081C171.132 9.081 172.766 9.39633 174.2 10.027C175.662 10.6577 176.894 11.5033 177.898 12.564C178.93 13.6247 179.704 14.8573 180.22 16.262C180.764 17.6667 181.037 19.1287 181.037 20.648C181.037 21.0207 181.022 21.379 180.994 21.723C180.994 22.067 180.965 22.3537 180.908 22.583H163.493C163.579 23.4717 163.794 24.26 164.138 24.948C164.482 25.636 164.926 26.2237 165.471 26.711C166.015 27.1983 166.632 27.571 167.32 27.829C168.008 28.087 168.724 28.216 169.47 28.216C170.616 28.216 171.691 27.9437 172.695 27.399C173.727 26.8257 174.429 26.0803 174.802 25.163L179.747 26.539C178.915 28.259 177.582 29.678 175.748 30.796C173.942 31.8853 171.777 32.43 169.255 32.43ZM175.103 18.842C174.959 17.1507 174.329 15.8033 173.211 14.8C172.121 13.768 170.788 13.252 169.212 13.252C168.438 13.252 167.707 13.3953 167.019 13.682C166.359 13.94 165.772 14.3127 165.256 14.8C164.74 15.2873 164.31 15.875 163.966 16.563C163.65 17.251 163.464 18.0107 163.407 18.842H175.103Z" fill="#90C6CD"/>
</svg>
