<svg width="135" height="31" viewBox="0 0 135 31" fill="none" xmlns="http://www.w3.org/2000/svg">
<path opacity="0.5" d="M22.95 1.76V30H18.35V17.32H5.07V30H0.51V1.76H5.07V13.6H18.35V1.76H22.95ZM48.9588 17.92C48.9588 18.6667 48.9054 19.32 48.7988 19.88H31.8388C31.9188 22.1467 32.5454 23.8267 33.7188 24.92C34.8921 26.0133 36.3454 26.56 38.0788 26.56C39.5988 26.56 40.8788 26.1733 41.9188 25.4C42.9854 24.6267 43.6388 23.6 43.8788 22.32H48.7588C48.4654 23.8667 47.8521 25.24 46.9188 26.44C45.9854 27.64 44.7721 28.5867 43.2788 29.28C41.7854 29.9467 40.1188 30.28 38.2788 30.28C36.1454 30.28 34.2521 29.8267 32.5988 28.92C30.9721 28.0133 29.6921 26.7067 28.7588 25C27.8254 23.2933 27.3588 21.28 27.3588 18.96C27.3588 16.6667 27.8254 14.6667 28.7588 12.96C29.6921 11.2533 30.9721 9.94667 32.5988 9.04C34.2521 8.13333 36.1454 7.68 38.2788 7.68C40.4388 7.68 42.3188 8.13333 43.9188 9.04C45.5454 9.92 46.7854 11.1467 47.6388 12.72C48.5188 14.2667 48.9588 16 48.9588 17.92ZM44.3588 17.8C44.4121 16.36 44.1588 15.16 43.5988 14.2C43.0654 13.2133 42.3188 12.4933 41.3588 12.04C40.4254 11.56 39.3988 11.32 38.2788 11.32C36.4921 11.32 34.9988 11.8667 33.7988 12.96C32.5988 14.0533 31.9454 15.6667 31.8388 17.8H44.3588ZM62.2016 7.68C64.2016 7.68 65.9082 8.17333 67.3216 9.16C68.7349 10.1467 69.7349 11.4533 70.3216 13.08V7.96H74.8816V30H70.3216V24.88C69.7349 26.5067 68.7349 27.8133 67.3216 28.8C65.9082 29.7867 64.2016 30.28 62.2016 30.28C60.2816 30.28 58.5616 29.8267 57.0416 28.92C55.5482 28.0133 54.3749 26.7067 53.5216 25C52.6682 23.2933 52.2416 21.28 52.2416 18.96C52.2416 16.6667 52.6682 14.6667 53.5216 12.96C54.3749 11.2533 55.5482 9.94667 57.0416 9.04C58.5616 8.13333 60.2816 7.68 62.2016 7.68ZM63.6016 11.68C61.5749 11.68 59.9482 12.3333 58.7216 13.64C57.5216 14.92 56.9216 16.6933 56.9216 18.96C56.9216 21.2267 57.5216 23.0133 58.7216 24.32C59.9482 25.6 61.5749 26.24 63.6016 26.24C64.8816 26.24 66.0282 25.9467 67.0416 25.36C68.0549 24.7467 68.8549 23.8933 69.4416 22.8C70.0282 21.7067 70.3216 20.4267 70.3216 18.96C70.3216 17.52 70.0282 16.2533 69.4416 15.16C68.8549 14.04 68.0549 13.1867 67.0416 12.6C66.0282 11.9867 64.8816 11.68 63.6016 11.68ZM84.9138 0.4V30H80.3538V0.4H84.9138ZM110.912 17.92C110.912 18.6667 110.859 19.32 110.752 19.88H93.7919C93.8719 22.1467 94.4985 23.8267 95.6719 24.92C96.8452 26.0133 98.2985 26.56 100.032 26.56C101.552 26.56 102.832 26.1733 103.872 25.4C104.939 24.6267 105.592 23.6 105.832 22.32H110.712C110.419 23.8667 109.805 25.24 108.872 26.44C107.939 27.64 106.725 28.5867 105.232 29.28C103.739 29.9467 102.072 30.28 100.232 30.28C98.0985 30.28 96.2052 29.8267 94.5519 28.92C92.9252 28.0133 91.6452 26.7067 90.7119 25C89.7785 23.2933 89.3119 21.28 89.3119 18.96C89.3119 16.6667 89.7785 14.6667 90.7119 12.96C91.6452 11.2533 92.9252 9.94667 94.5519 9.04C96.2052 8.13333 98.0985 7.68 100.232 7.68C102.392 7.68 104.272 8.13333 105.872 9.04C107.499 9.92 108.739 11.1467 109.592 12.72C110.472 14.2667 110.912 16 110.912 17.92ZM106.312 17.8C106.365 16.36 106.112 15.16 105.552 14.2C105.019 13.2133 104.272 12.4933 103.312 12.04C102.379 11.56 101.352 11.32 100.232 11.32C98.4452 11.32 96.9519 11.8667 95.7519 12.96C94.5519 14.0533 93.8985 15.6667 93.7919 17.8H106.312ZM119.875 12.28C120.621 10.84 121.688 9.70667 123.075 8.88C124.461 8.02667 126.061 7.6 127.875 7.6V12.56H126.515C124.515 12.56 122.901 13.0533 121.675 14.04C120.475 15 119.875 16.6 119.875 18.84V30H115.315V7.96H119.875V12.28ZM134.891 24.96V30H129.731V24.96H134.891Z" fill="#90C6CD"/>
</svg>
