<svg width="165" height="55" viewBox="0 0 165 55" fill="none" xmlns="http://www.w3.org/2000/svg">
<path opacity="0.5" d="M35.282 31.411C35.6547 31.411 35.9413 31.583 36.142 31.927C36.3713 32.271 36.486 32.744 36.486 33.346C36.486 34.464 36.2137 35.3527 35.669 36.012C34.0637 37.9327 32.5013 39.28 30.982 40.054C29.4913 40.828 27.6853 41.215 25.564 41.215C24.0733 41.215 22.6973 41.0287 21.436 40.656C20.1747 40.2833 18.641 39.7243 16.835 38.979C15.201 38.2623 13.6243 37.6747 12.105 37.216C10.643 39.882 8.45 41.215 5.526 41.215C3.92067 41.215 2.645 40.8567 1.699 40.14C0.724333 39.3947 0.237 38.4487 0.237 37.302C0.237 35.8973 0.910667 34.7363 2.258 33.819C3.60533 32.873 5.397 32.4 7.633 32.4H8.192L8.966 19.887C9.138 17.0203 9.654 14.6553 10.514 12.792C11.374 10.9287 12.5637 9.33767 14.083 8.019C15.4017 6.87233 16.9067 6.01233 18.598 5.439C20.2893 4.837 22.081 4.536 23.973 4.536C27.069 4.536 29.4483 5.33866 31.111 6.944C32.7737 8.54933 33.605 10.642 33.605 13.222C33.605 14.9707 33.2897 16.3897 32.659 17.479C32.0283 18.5397 31.154 19.07 30.036 19.07C29.2333 19.07 28.6027 18.8837 28.144 18.511C27.6853 18.1097 27.456 17.5507 27.456 16.834C27.456 16.576 27.5133 16.103 27.628 15.415C27.8 14.6123 27.886 13.8957 27.886 13.265C27.886 12.061 27.5277 11.115 26.811 10.427C26.123 9.71033 25.0623 9.352 23.629 9.352C21.1063 9.352 19.157 10.1833 17.781 11.846C16.405 13.48 15.5307 16.06 15.158 19.586L14.169 29.347C14.0257 30.723 13.8393 31.9127 13.61 32.916C15.4447 33.2313 17.738 33.733 20.49 34.421C22.0953 34.8223 23.328 35.109 24.188 35.281C25.048 35.453 25.8077 35.539 26.467 35.539C28.1297 35.539 29.5487 35.2667 30.724 34.722C31.928 34.1487 33.0603 33.2457 34.121 32.013C34.465 31.6117 34.852 31.411 35.282 31.411ZM38.6296 18.124C37.4256 18.124 36.5226 17.8517 35.9206 17.307C35.3186 16.7337 35.0176 15.9453 35.0176 14.942C35.0176 13.9387 35.4046 13.1073 36.1786 12.448C36.9813 11.76 37.9703 11.416 39.1456 11.416C40.2063 11.416 41.0663 11.674 41.7256 12.19C42.385 12.706 42.7146 13.437 42.7146 14.383C42.7146 15.5297 42.342 16.447 41.5966 17.135C40.8513 17.7943 39.8623 18.124 38.6296 18.124ZM38.2856 41.215C36.4223 41.215 35.0606 40.5557 34.2006 39.237C33.3693 37.9183 32.9536 36.1697 32.9536 33.991C32.9536 32.701 33.1113 31.0527 33.4266 29.046C33.7706 27.0107 34.2006 25.1187 34.7166 23.37C34.9746 22.4527 35.3186 21.822 35.7486 21.478C36.1786 21.134 36.8666 20.962 37.8126 20.962C39.2746 20.962 40.0056 21.4493 40.0056 22.424C40.0056 23.1407 39.7333 24.8033 39.1886 27.412C38.5006 30.5653 38.1566 32.701 38.1566 33.819C38.1566 34.679 38.2713 35.3383 38.5006 35.797C38.73 36.2557 39.117 36.485 39.6616 36.485C40.1776 36.485 40.8226 36.1267 41.5966 35.41C42.3706 34.6933 43.4026 33.561 44.6926 32.013C45.0366 31.6117 45.4236 31.411 45.8536 31.411C46.2263 31.411 46.513 31.583 46.7136 31.927C46.943 32.271 47.0576 32.744 47.0576 33.346C47.0576 34.4927 46.7853 35.3813 46.2406 36.012C43.4026 39.4807 40.751 41.215 38.2856 41.215ZM60.3157 28.96C61.1184 28.96 61.5197 29.562 61.5197 30.766C61.5197 33.0307 59.7424 34.163 56.1877 34.163C55.4997 34.163 54.5107 34.034 53.2207 33.776C53.5934 35.5533 53.8944 37.5313 54.1237 39.71C54.3817 41.86 54.5107 43.6373 54.5107 45.042C54.5107 48.138 54.0091 50.503 53.0057 52.137C52.0024 53.771 50.6837 54.588 49.0497 54.588C46.9857 54.588 45.5094 53.126 44.6207 50.202C43.7607 47.278 43.3307 42.8633 43.3307 36.958C43.3307 31.454 43.9184 25.8783 45.0937 20.231C46.2977 14.555 47.9317 9.868 49.9957 6.17C52.0884 2.44333 54.3817 0.579998 56.8757 0.579998C58.2231 0.579998 59.2694 1.182 60.0147 2.386C60.7887 3.59 61.1757 5.20966 61.1757 7.245C61.1757 13.9817 57.1481 21.3203 49.0927 29.261C48.8061 32.0703 48.6627 34.5357 48.6627 36.657C48.6627 39.6097 48.7631 42.634 48.9637 45.73C49.1644 48.8547 49.4941 50.417 49.9527 50.417C50.8127 50.417 51.2427 48.9263 51.2427 45.945C51.2427 43.709 51.0851 41.5447 50.7697 39.452C50.4831 37.3593 50.0817 35.152 49.5657 32.83C49.5371 32.4573 49.6517 31.9843 49.9097 31.411C50.1964 30.8377 50.5404 30.336 50.9417 29.906C51.3431 29.476 51.7014 29.261 52.0167 29.261C52.5901 29.261 53.2781 29.2897 54.0807 29.347C54.3387 29.3757 54.6397 29.39 54.9837 29.39C56.1304 29.39 57.4061 29.2897 58.8107 29.089C59.0401 29.0603 59.2837 29.0317 59.5417 29.003C59.7997 28.9743 60.0577 28.96 60.3157 28.96ZM55.9727 4.837C55.4567 4.837 54.8117 5.71133 54.0377 7.46C53.2924 9.20867 52.5471 11.5307 51.8017 14.426C51.0564 17.2927 50.4114 20.3313 49.8667 23.542C52.1601 20.9333 53.9231 18.2243 55.1557 15.415C56.3884 12.577 57.0191 9.92533 57.0477 7.46C57.0477 5.71133 56.6894 4.837 55.9727 4.837ZM77.4539 31.411C77.8266 31.411 78.1132 31.583 78.3139 31.927C78.5432 32.271 78.6579 32.744 78.6579 33.346C78.6579 34.4927 78.3856 35.3813 77.8409 36.012C76.7802 37.302 75.2752 38.4917 73.3259 39.581C71.4052 40.6703 69.3412 41.215 67.1339 41.215C64.1239 41.215 61.7876 40.398 60.1249 38.764C58.4622 37.13 57.6309 34.894 57.6309 32.056C57.6309 30.078 58.0466 28.2433 58.8779 26.552C59.7092 24.832 60.8559 23.4703 62.3179 22.467C63.8086 21.4637 65.4856 20.962 67.3489 20.962C69.0116 20.962 70.3446 21.4637 71.3479 22.467C72.3512 23.4417 72.8529 24.7747 72.8529 26.466C72.8529 28.444 72.1362 30.1497 70.7029 31.583C69.2982 32.9877 66.9046 34.1057 63.5219 34.937C64.2386 36.2557 65.6002 36.915 67.6069 36.915C68.8969 36.915 70.3589 36.4707 71.9929 35.582C73.6556 34.6647 75.0889 33.475 76.2929 32.013C76.6369 31.6117 77.0239 31.411 77.4539 31.411ZM66.6179 25.176C65.5572 25.176 64.6542 25.7923 63.9089 27.025C63.1922 28.2577 62.8339 29.7483 62.8339 31.497V31.583C64.5252 31.1817 65.8582 30.5797 66.8329 29.777C67.8076 28.9743 68.2949 28.0427 68.2949 26.982C68.2949 26.4373 68.1372 26.0073 67.8219 25.692C67.5352 25.348 67.1339 25.176 66.6179 25.176ZM94.3348 31.411C94.7074 31.411 94.9941 31.583 95.1948 31.927C95.4241 32.271 95.5388 32.744 95.5388 33.346C95.5388 34.4927 95.2664 35.3813 94.7218 36.012C93.4891 37.5313 92.1418 38.7783 90.6798 39.753C89.2178 40.7277 87.5408 41.215 85.6488 41.215C79.8008 41.215 76.8768 37.1013 76.8768 28.874C76.8768 27.6127 76.9198 26.337 77.0058 25.047H75.3288C74.4688 25.047 73.8811 24.8893 73.5658 24.574C73.2791 24.2587 73.1358 23.757 73.1358 23.069C73.1358 21.4637 73.7808 20.661 75.0708 20.661H77.5218C78.0091 17.5077 78.7544 14.6267 79.7578 12.018C80.7611 9.40933 81.9651 7.331 83.3698 5.783C84.8031 4.235 86.3368 3.461 87.9708 3.461C89.1748 3.461 90.1208 3.99133 90.8088 5.052C91.4968 6.11267 91.8408 7.44567 91.8408 9.051C91.8408 13.4943 89.9774 17.3643 86.2508 20.661H91.0668C91.5254 20.661 91.8551 20.7613 92.0558 20.962C92.2564 21.1627 92.3568 21.5353 92.3568 22.08C92.3568 24.058 90.7371 25.047 87.4978 25.047H82.2518C82.1944 26.4803 82.1658 27.5983 82.1658 28.401C82.1658 31.3823 82.5098 33.475 83.1978 34.679C83.9144 35.883 85.0324 36.485 86.5518 36.485C87.7844 36.485 88.8738 36.1123 89.8198 35.367C90.7658 34.6217 91.8838 33.5037 93.1738 32.013C93.5178 31.6117 93.9048 31.411 94.3348 31.411ZM86.8098 7.589C86.3798 7.589 85.8924 8.13367 85.3478 9.223C84.8318 10.2837 84.3301 11.7743 83.8428 13.695C83.3841 15.587 82.9971 17.694 82.6818 20.016C84.3731 18.554 85.6344 16.92 86.4658 15.114C87.3258 13.2793 87.7558 11.6167 87.7558 10.126C87.7558 8.43467 87.4404 7.589 86.8098 7.589ZM95.0906 41.215C94.0013 41.215 93.2273 40.6417 92.7686 39.495C92.3386 38.3483 92.1236 36.5137 92.1236 33.991C92.1236 30.2643 92.654 26.724 93.7146 23.37C93.9726 22.5387 94.3883 21.9367 94.9616 21.564C95.5636 21.1627 96.395 20.962 97.4556 20.962C98.029 20.962 98.4303 21.0337 98.6596 21.177C98.889 21.3203 99.0036 21.5927 99.0036 21.994C99.0036 22.4527 98.7886 23.4847 98.3586 25.09C98.072 26.2367 97.8426 27.24 97.6706 28.1C97.4986 28.96 97.3553 30.0207 97.2406 31.282C98.1866 28.8167 99.2473 26.81 100.423 25.262C101.598 23.714 102.745 22.6103 103.863 21.951C105.009 21.2917 106.056 20.962 107.002 20.962C108.865 20.962 109.797 21.8937 109.797 23.757C109.797 24.1297 109.668 25.0327 109.41 26.466C109.18 27.6127 109.066 28.3293 109.066 28.616C109.066 29.6193 109.424 30.121 110.141 30.121C110.943 30.121 111.975 29.4903 113.237 28.229C113.609 27.8563 113.996 27.67 114.398 27.67C114.77 27.67 115.057 27.842 115.258 28.186C115.487 28.5013 115.602 28.9313 115.602 29.476C115.602 30.5367 115.315 31.368 114.742 31.97C113.939 32.8013 112.993 33.518 111.904 34.12C110.843 34.6933 109.711 34.98 108.507 34.98C106.987 34.98 105.826 34.593 105.024 33.819C104.25 33.045 103.863 31.9987 103.863 30.68C103.863 30.25 103.906 29.82 103.992 29.39C104.049 28.8167 104.078 28.4297 104.078 28.229C104.078 27.7703 103.92 27.541 103.605 27.541C103.175 27.541 102.601 28.0283 101.885 29.003C101.197 29.949 100.509 31.2103 99.8206 32.787C99.1326 34.3637 98.5736 36.0263 98.1436 37.775C97.8283 39.1223 97.4556 40.0397 97.0256 40.527C96.6243 40.9857 95.9793 41.215 95.0906 41.215ZM116.895 41.215C115.118 41.215 113.699 40.57 112.638 39.28C111.577 37.99 111.047 36.2987 111.047 34.206C111.047 31.9127 111.577 29.7483 112.638 27.713C113.699 25.649 115.103 24.0007 116.852 22.768C118.629 21.5067 120.507 20.876 122.485 20.876C123.116 20.876 123.531 21.005 123.732 21.263C123.961 21.4923 124.148 21.9223 124.291 22.553C124.893 22.4383 125.524 22.381 126.183 22.381C127.588 22.381 128.29 22.8827 128.29 23.886C128.29 24.488 128.075 25.9213 127.645 28.186C126.986 31.4827 126.656 33.776 126.656 35.066C126.656 35.496 126.756 35.84 126.957 36.098C127.186 36.356 127.473 36.485 127.817 36.485C128.362 36.485 129.021 36.141 129.795 35.453C130.569 34.7363 131.615 33.5897 132.934 32.013C133.278 31.6117 133.665 31.411 134.095 31.411C134.468 31.411 134.754 31.583 134.955 31.927C135.184 32.271 135.299 32.744 135.299 33.346C135.299 34.4927 135.027 35.3813 134.482 36.012C133.307 37.474 132.06 38.7067 130.741 39.71C129.422 40.7133 128.147 41.215 126.914 41.215C125.968 41.215 125.094 40.8997 124.291 40.269C123.517 39.6097 122.929 38.721 122.528 37.603C121.037 40.011 119.16 41.215 116.895 41.215ZM118.443 36.872C119.074 36.872 119.676 36.4993 120.249 35.754C120.822 35.0087 121.238 34.0197 121.496 32.787L123.087 24.875C121.883 24.9037 120.765 25.3623 119.733 26.251C118.73 27.111 117.927 28.2577 117.325 29.691C116.723 31.1243 116.422 32.6437 116.422 34.249C116.422 35.1377 116.594 35.797 116.938 36.227C117.311 36.657 117.812 36.872 118.443 36.872ZM140.017 41.215C137.208 41.215 135.015 40.4267 133.438 38.85C131.89 37.2447 131.116 35.1377 131.116 32.529C131.116 30.207 131.575 28.1717 132.492 26.423C133.41 24.6743 134.599 23.327 136.061 22.381C137.523 21.435 139.057 20.962 140.662 20.962C142.239 20.962 143.457 21.435 144.317 22.381C145.206 23.2983 145.65 24.488 145.65 25.95C145.65 27.154 145.378 28.1717 144.833 29.003C144.317 29.8343 143.629 30.25 142.769 30.25C142.225 30.25 141.78 30.121 141.436 29.863C141.121 29.605 140.963 29.2467 140.963 28.788C140.963 28.5873 140.992 28.358 141.049 28.1C141.107 27.842 141.15 27.6557 141.178 27.541C141.322 27.111 141.393 26.7097 141.393 26.337C141.393 25.9643 141.293 25.6777 141.092 25.477C140.92 25.2763 140.662 25.176 140.318 25.176C139.659 25.176 139.043 25.477 138.469 26.079C137.896 26.6523 137.437 27.4407 137.093 28.444C136.749 29.4473 136.577 30.551 136.577 31.755C136.577 35.0803 138.025 36.743 140.92 36.743C142.096 36.743 143.357 36.356 144.704 35.582C146.08 34.7793 147.428 33.5897 148.746 32.013C149.09 31.6117 149.477 31.411 149.907 31.411C150.28 31.411 150.567 31.583 150.767 31.927C150.997 32.271 151.111 32.744 151.111 33.346C151.111 34.4353 150.839 35.324 150.294 36.012C148.947 37.6747 147.327 38.9647 145.435 39.882C143.572 40.7707 141.766 41.215 140.017 41.215ZM163.029 32.701C163.402 32.701 163.689 32.873 163.889 33.217C164.119 33.561 164.233 34.034 164.233 34.636C164.233 35.668 163.99 36.5567 163.502 37.302C162.7 38.5347 161.639 39.495 160.32 40.183C159.03 40.871 157.482 41.215 155.676 41.215C152.924 41.215 150.789 40.398 149.269 38.764C147.75 37.1013 146.99 34.8653 146.99 32.056C146.99 30.078 147.406 28.2433 148.237 26.552C149.069 24.832 150.215 23.4703 151.677 22.467C153.168 21.4637 154.845 20.962 156.708 20.962C158.371 20.962 159.704 21.4637 160.707 22.467C161.711 23.4417 162.212 24.7747 162.212 26.466C162.212 28.444 161.496 30.1497 160.062 31.583C158.658 32.9877 156.25 34.1057 152.838 34.937C153.526 36.2557 154.687 36.915 156.321 36.915C157.497 36.915 158.457 36.6427 159.202 36.098C159.976 35.5533 160.865 34.636 161.868 33.346C162.212 32.916 162.599 32.701 163.029 32.701ZM155.977 25.176C154.917 25.176 154.014 25.7923 153.268 27.025C152.552 28.2577 152.193 29.7483 152.193 31.497V31.583C153.885 31.1817 155.218 30.5797 156.192 29.777C157.167 28.9743 157.654 28.0427 157.654 26.982C157.654 26.4373 157.497 26.0073 157.181 25.692C156.895 25.348 156.493 25.176 155.977 25.176Z" fill="#90C6CD"/>
</svg>
