<svg width="150" height="32" viewBox="0 0 150 32" fill="none" xmlns="http://www.w3.org/2000/svg">
<path opacity="0.5" d="M16.9 10.672C16.76 9.244 16.396 7.956 15.808 6.808C15.22 5.66 14.408 4.75 13.372 4.078C12.336 3.378 11.048 3.042 9.508 3.07C7.94 3.07 6.694 3.504 5.77 4.372C4.846 5.24 4.384 6.29 4.384 7.522C4.384 8.614 4.692 9.538 5.308 10.294C5.924 11.022 6.75 11.68 7.786 12.268C8.85 12.856 10.04 13.444 11.356 14.032C12.42 14.48 13.498 14.984 14.59 15.544C15.682 16.104 16.676 16.748 17.572 17.476C18.468 18.176 19.182 19.03 19.714 20.038C20.246 21.018 20.512 22.18 20.512 23.524C20.512 25.092 20.106 26.492 19.294 27.724C18.482 28.956 17.32 29.922 15.808 30.622C14.324 31.322 12.518 31.672 10.39 31.672C9.186 31.672 7.912 31.49 6.568 31.126C5.252 30.762 4.048 30.244 2.956 29.572L3.166 31.336H0.604L0.436 22.096H2.452C2.676 24.532 3.544 26.38 5.056 27.64C6.596 28.872 8.43 29.488 10.558 29.488C11.622 29.488 12.588 29.292 13.456 28.9C14.324 28.508 15.01 27.948 15.514 27.22C16.018 26.492 16.27 25.638 16.27 24.658C16.27 23.51 15.92 22.544 15.22 21.76C14.548 20.976 13.68 20.304 12.616 19.744C11.58 19.184 10.488 18.652 9.34 18.148C8.192 17.644 7.072 17.112 5.98 16.552C4.916 15.992 3.95 15.348 3.082 14.62C2.214 13.892 1.528 13.038 1.024 12.058C0.52 11.05 0.268 9.874 0.268 8.53C0.268 7.746 0.408 6.92 0.688 6.052C0.968 5.184 1.444 4.358 2.116 3.574C2.788 2.79 3.698 2.16 4.846 1.684C6.022 1.18 7.492 0.927999 9.256 0.927999C10.32 0.927999 11.51 1.082 12.826 1.39C14.17 1.698 15.388 2.244 16.48 3.028L16.312 1.264H18.832V10.672H16.9ZM41.3922 31.672C38.7322 31.672 36.4502 31.224 34.5462 30.328C32.6702 29.432 31.1442 28.242 29.9682 26.758C28.7922 25.246 27.9242 23.58 27.3642 21.76C26.8042 19.94 26.5242 18.12 26.5242 16.3C26.5242 14.536 26.8182 12.758 27.4062 10.966C28.0222 9.146 28.9322 7.48 30.1362 5.968C31.3682 4.456 32.8942 3.238 34.7142 2.314C36.5622 1.39 38.7182 0.927999 41.1822 0.927999C43.7582 0.927999 45.9702 1.39 47.8182 2.314C49.6942 3.238 51.2342 4.47 52.4382 6.01C53.6422 7.522 54.5382 9.174 55.1262 10.966C55.7422 12.758 56.0502 14.536 56.0502 16.3C56.0502 18.036 55.7422 19.814 55.1262 21.634C54.5382 23.426 53.6282 25.092 52.3962 26.632C51.1922 28.144 49.6802 29.362 47.8602 30.286C46.0402 31.21 43.8842 31.672 41.3922 31.672ZM41.6022 29.488C43.2262 29.488 44.6262 29.124 45.8022 28.396C47.0062 27.668 47.9862 26.702 48.7422 25.498C49.5262 24.266 50.1002 22.922 50.4642 21.466C50.8282 19.982 51.0102 18.512 51.0102 17.056C51.0102 15.264 50.8002 13.542 50.3802 11.89C49.9602 10.21 49.3162 8.712 48.4482 7.396C47.6082 6.052 46.5582 5.002 45.2982 4.246C44.0382 3.462 42.5822 3.07 40.9302 3.07C39.3062 3.07 37.8922 3.448 36.6882 4.204C35.4842 4.96 34.5042 5.954 33.7482 7.186C32.9922 8.39 32.4182 9.734 32.0262 11.218C31.6622 12.674 31.4802 14.144 31.4802 15.628C31.4802 17.084 31.6762 18.624 32.0682 20.248C32.4602 21.872 33.0622 23.384 33.8742 24.784C34.6862 26.184 35.7222 27.318 36.9822 28.186C38.2702 29.054 39.8102 29.488 41.6022 29.488ZM73.1646 31.378L63.5886 8.95C63.0846 7.774 62.7066 6.766 62.4546 5.926C62.2026 5.086 62.0486 4.386 61.9926 3.826C61.6006 3.854 61.2086 3.868 60.8166 3.868C60.4246 3.868 60.0466 3.882 59.6826 3.91V1.6H70.3086L70.2666 3.49C69.0066 3.518 68.1806 3.868 67.7886 4.54C67.4246 5.212 67.5226 6.22 68.0826 7.564C68.7266 9.188 69.3566 10.784 69.9726 12.352C70.6166 13.92 71.3026 15.558 72.0306 17.266C72.6186 18.694 73.1786 20.038 73.7106 21.298C74.2426 22.558 74.7046 23.678 75.0966 24.658H75.1386C75.4466 23.734 75.7686 22.81 76.1046 21.886C76.4406 20.934 76.8186 19.884 77.2386 18.736C77.9106 16.832 78.4986 15.18 79.0026 13.78C79.5066 12.38 79.9546 11.134 80.3466 10.042C80.7386 8.95 81.0886 7.97 81.3966 7.102C81.6206 6.458 81.8446 5.842 82.0686 5.254C82.3206 4.638 82.5586 4.134 82.7826 3.742C82.2786 3.77 81.7326 3.798 81.1446 3.826C80.5566 3.854 80.0246 3.882 79.5486 3.91V1.6H88.3686V3.448C87.2486 3.504 86.3526 3.84 85.6806 4.456C85.0086 5.072 84.3926 6.15 83.8326 7.69C83.6366 8.194 83.4266 8.74 83.2026 9.328C83.0066 9.888 82.7546 10.56 82.4466 11.344C82.1666 12.1 81.8306 13.024 81.4386 14.116C81.0466 15.208 80.5566 16.552 79.9686 18.148C79.4086 19.716 78.7226 21.578 77.9106 23.734C77.1266 25.89 76.1886 28.438 75.0966 31.378H73.1646ZM107.138 20.374C107.138 19.17 106.956 18.302 106.592 17.77C106.256 17.238 105.738 16.916 105.038 16.804C104.338 16.664 103.47 16.622 102.434 16.678L99.9983 16.762V25.498C99.9983 26.254 99.9843 26.926 99.9563 27.514C99.9563 28.074 99.9283 28.536 99.8723 28.9L107.096 28.816C108.188 28.788 109.168 28.592 110.036 28.228C110.904 27.836 111.59 27.178 112.094 26.254C112.598 25.33 112.85 24.07 112.85 22.474H114.698L114.446 31H92.6063V29.152C93.5303 29.096 94.1883 28.9 94.5803 28.564C95.0003 28.228 95.2663 27.724 95.3783 27.052C95.4903 26.38 95.5463 25.526 95.5463 24.49V7.018C95.5463 6.402 95.5603 5.814 95.5883 5.254C95.6163 4.666 95.6443 4.162 95.6723 3.742C95.1963 3.77 94.6783 3.798 94.1183 3.826C93.5583 3.854 93.0543 3.882 92.6063 3.91V1.6H113.102L113.312 9.202H111.464C111.464 7.606 111.198 6.388 110.666 5.548C110.162 4.708 109.49 4.148 108.65 3.868C107.838 3.588 106.956 3.462 106.004 3.49L103.064 3.574C102.196 3.574 101.538 3.728 101.09 4.036C100.642 4.316 100.348 4.792 100.208 5.464C100.068 6.108 99.9983 6.99 99.9983 8.11V14.704H106.928L106.676 11.092H108.986V20.374H107.138ZM144.058 31.588L128.434 10.84C128.126 10.476 127.832 10.098 127.552 9.706C127.272 9.314 126.978 8.908 126.67 8.488H126.628L126.754 24.826C126.754 25.526 126.74 26.226 126.712 26.926C126.712 27.626 126.684 28.27 126.628 28.858C127.104 28.802 127.622 28.774 128.182 28.774C128.77 28.746 129.274 28.718 129.694 28.69V31H121.378V29.152C122.162 29.152 122.75 28.998 123.142 28.69C123.562 28.382 123.842 27.976 123.982 27.472C124.15 26.968 124.234 26.38 124.234 25.708V6.892C124.234 6.332 124.234 5.772 124.234 5.212C124.234 4.652 124.248 4.162 124.276 3.742C123.828 3.77 123.324 3.798 122.764 3.826C122.232 3.854 121.756 3.882 121.336 3.91V1.6H126.88L141.664 21.046C142.14 21.662 142.56 22.236 142.924 22.768C143.316 23.3 143.694 23.804 144.058 24.28H144.1L144.142 7.018C144.142 6.402 144.156 5.814 144.184 5.254C144.212 4.666 144.24 4.162 144.268 3.742C143.764 3.77 143.232 3.798 142.672 3.826C142.112 3.854 141.622 3.882 141.202 3.91V1.6H149.518V3.448C148.622 3.476 147.964 3.672 147.544 4.036C147.152 4.372 146.9 4.876 146.788 5.548C146.704 6.192 146.662 7.046 146.662 8.11L146.62 31.588H144.058Z" fill="#90C6CD"/>
</svg>
