<svg width="160" height="28" viewBox="0 0 160 28" fill="none" xmlns="http://www.w3.org/2000/svg">
<path opacity="0.5" d="M0.274 28V0.525998H9.755C11.5537 0.525998 13.0863 0.696999 14.353 1.039C15.6323 1.381 16.6773 1.86867 17.488 2.502C18.3113 3.13533 18.913 3.90167 19.293 4.801C19.673 5.70033 19.863 6.71366 19.863 7.841C19.863 8.487 19.768 9.10767 19.578 9.703C19.388 10.2857 19.0903 10.8367 18.685 11.356C18.2923 11.8627 17.7857 12.325 17.165 12.743C16.557 13.161 15.8287 13.5157 14.98 13.807C18.7547 14.6557 20.642 16.695 20.642 19.925C20.642 21.0903 20.4203 22.167 19.977 23.155C19.5337 24.143 18.8877 24.998 18.039 25.72C17.1903 26.4293 16.1453 26.9867 14.904 27.392C13.6627 27.7973 12.244 28 10.648 28H0.274ZM5.385 15.954V24.01H10.572C11.522 24.01 12.3137 23.896 12.947 23.668C13.593 23.44 14.106 23.136 14.486 22.756C14.8787 22.376 15.1573 21.9327 15.322 21.426C15.4993 20.9193 15.588 20.381 15.588 19.811C15.588 19.2157 15.493 18.6837 15.303 18.215C15.113 17.7337 14.8153 17.3283 14.41 16.999C14.0047 16.657 13.4853 16.3973 12.852 16.22C12.2187 16.0427 11.4523 15.954 10.553 15.954H5.385ZM5.385 12.42H9.47C11.2053 12.42 12.5227 12.1033 13.422 11.47C14.3213 10.8367 14.771 9.82967 14.771 8.449C14.771 7.01767 14.3657 5.998 13.555 5.39C12.7443 4.782 11.4777 4.478 9.755 4.478H5.385V12.42ZM48.054 0.525998V4.592H35.875V12.211H45.47V16.144H35.875V23.915H48.054V28H30.726V0.525998H48.054ZM77.533 0.525998V4.725H69.268V28H64.157V4.725H55.854V0.525998H77.533ZM107.837 28H103.885C103.442 28 103.075 27.8923 102.783 27.677C102.505 27.449 102.302 27.1703 102.175 26.841L100.123 21.236H88.7425L86.6905 26.841C86.5891 27.1323 86.3865 27.3983 86.0825 27.639C85.7911 27.8797 85.4301 28 84.9995 28H81.0285L91.8205 0.525998H97.0455L107.837 28ZM90.0535 17.626H98.8125L95.4685 8.487C95.3165 8.08167 95.1455 7.60667 94.9555 7.062C94.7781 6.50467 94.6008 5.903 94.4235 5.257C94.2461 5.903 94.0688 6.50467 93.8915 7.062C93.7268 7.61933 93.5621 8.107 93.3975 8.525L90.0535 17.626ZM133.695 0.525998V4.592H121.516V12.211H131.111V16.144H121.516V23.915H133.695V28H116.367V0.525998H133.695ZM148.924 23.782H159.925V28H143.813V0.525998H148.924V23.782Z" fill="#90C6CD"/>
</svg>
