<svg width="1466" height="588" viewBox="0 0 1466 588" fill="none" xmlns="http://www.w3.org/2000/svg">
<rect width="1466" height="588" rx="20" fill="#E8F0F1"/>
<g filter="url(#filter0_d_147_5)">
<path d="M1305 112.624C1315.03 101.041 1327.74 95.25 1343.14 95.25C1355.99 95.25 1366.73 99.9113 1375.62 109.375C1384.52 118.839 1389.19 129.574 1389.75 141.863C1389.75 151.75 1385.09 163.191 1375.62 176.61C1366.16 190.029 1356.98 201.188 1347.8 210.369C1338.62 219.409 1324.35 232.828 1305 250.625C1285.37 232.828 1270.96 219.409 1261.78 210.369C1252.6 201.329 1243.27 190.029 1233.95 176.61C1224.63 163.191 1220.25 151.75 1220.25 141.863C1220.25 129.009 1224.77 118.274 1233.95 109.375C1243.13 100.476 1254.15 95.815 1267 95.25C1282.12 95.25 1294.69 101.041 1305 112.624ZM1389.75 335.375V349.5L1276.75 384.813L1177.88 357.41V377.75H1093.12V222.375H1205.7L1292.71 254.863C1300.46 257.787 1307.14 263.002 1311.86 269.814C1316.58 276.627 1319.11 284.713 1319.12 293H1347.38C1370.82 293 1389.75 311.928 1389.75 335.375ZM1149.62 349.5V250.625H1121.38V349.5H1149.62ZM1360.09 329.301C1357.83 324.64 1352.88 321.25 1347.38 321.25H1271.81C1264.18 321.25 1256.69 320.12 1249.49 317.719L1215.87 306.56L1224.77 279.723L1258.39 290.881C1262.62 292.294 1290.88 293 1290.88 293C1290.88 287.774 1287.63 283.113 1282.82 281.276L1200.62 250.625H1177.88V328.313L1276.33 355.291L1360.09 329.301Z" fill="#EBF3F4"/>
</g>
<defs>
<filter id="filter0_d_147_5" x="1023.12" y="25.25" width="436.625" height="429.562" filterUnits="userSpaceOnUse" color-interpolation-filters="sRGB">
<feFlood flood-opacity="0" result="BackgroundImageFix"/>
<feColorMatrix in="SourceAlpha" type="matrix" values="0 0 0 0 0 0 0 0 0 0 0 0 0 0 0 0 0 0 127 0" result="hardAlpha"/>
<feOffset/>
<feGaussianBlur stdDeviation="35"/>
<feComposite in2="hardAlpha" operator="out"/>
<feColorMatrix type="matrix" values="0 0 0 0 0.0329861 0 0 0 0 0.285147 0 0 0 0 0.316667 0 0 0 0.04 0"/>
<feBlend mode="normal" in2="BackgroundImageFix" result="effect1_dropShadow_147_5"/>
<feBlend mode="normal" in="SourceGraphic" in2="effect1_dropShadow_147_5" result="shape"/>
</filter>
</defs>
</svg>
