<svg width="50" height="50" viewBox="0 0 50 50" fill="none" xmlns="http://www.w3.org/2000/svg">
<path d="M18.7493 8.33317C18.7493 6.02067 20.6035 4.1665 22.916 4.1665C25.2285 4.1665 27.0827 6.02067 27.0827 8.33317C27.0827 10.6457 25.2285 12.4998 22.916 12.4998C20.6035 12.4998 18.7493 10.6457 18.7493 8.33317ZM33.3327 27.0832C33.3327 24.2915 31.6035 21.8748 29.166 20.8332C29.166 19.1756 28.5075 17.5859 27.3354 16.4138C26.1633 15.2417 24.5736 14.5832 22.916 14.5832C21.2584 14.5832 19.6687 15.2417 18.4966 16.4138C17.3245 17.5859 16.666 19.1756 16.666 20.8332V35.4165H20.8327V45.8332H27.0827V35.4165H33.3327V27.0832Z" fill="#90C6CD"/>
</svg>
