<svg width="50" height="50" viewBox="0 0 50 50" fill="none" xmlns="http://www.w3.org/2000/svg">
<path d="M39.5827 16.6667C40.6877 16.6667 41.7476 17.1057 42.529 17.8871C43.3104 18.6685 43.7493 19.7283 43.7493 20.8333V34.9167C45.0202 36.0625 45.8327 37.7292 45.8327 39.5833C45.8327 43.0417 43.041 45.8333 39.5827 45.8333C36.1243 45.8333 33.3327 43.0417 33.3327 39.5833C33.3327 37.7292 34.1452 36.0625 35.416 34.9167V20.8333C35.416 18.5417 37.291 16.6667 39.5827 16.6667ZM39.5827 18.75C38.4368 18.75 37.4993 19.6875 37.4993 20.8333V22.9167H41.666V20.8333C41.666 19.6875 40.7285 18.75 39.5827 18.75ZM10.416 41.6667V25H4.16602L24.9993 6.25L34.166 14.5C33.2481 15.2796 32.5114 16.2504 32.0077 17.3443C31.5039 18.4382 31.2451 19.629 31.2493 20.8333V33.3333C29.9368 35.0625 29.166 37.2292 29.166 39.5833L29.3743 41.6667H10.416Z" fill="#90C6CD"/>
</svg>
