<svg width="50" height="50" viewBox="0 0 50 50" fill="none" xmlns="http://www.w3.org/2000/svg">
<path d="M45.8327 37.5C45.8327 39.7101 44.9547 41.8298 43.3919 43.3926C41.8291 44.9554 39.7095 45.8333 37.4993 45.8333H29.166C26.9559 45.8333 24.8363 44.9554 23.2735 43.3926C21.7107 41.8298 20.8327 39.7101 20.8327 37.5V33.3333H45.8327V37.5ZM8.33268 6.25H29.166C30.2711 6.25 31.3309 6.68899 32.1123 7.47039C32.8937 8.25179 33.3327 9.3116 33.3327 10.4167V29.1667H16.666V39.5833H8.33268C7.22761 39.5833 6.16781 39.1443 5.3864 38.3629C4.605 37.5815 4.16602 36.5217 4.16602 35.4167V10.4167C4.16602 9.3116 4.605 8.25179 5.3864 7.47039C6.16781 6.68899 7.22761 6.25 8.33268 6.25ZM8.33268 12.5V16.6667H12.4993V12.5H8.33268ZM29.166 16.6667V12.5H16.666V16.6667H29.166ZM8.33268 20.8333V25H12.4993V20.8333H8.33268ZM16.666 20.8333V25H29.166V20.8333H16.666ZM8.33268 29.1667V33.3333H12.4993V29.1667H8.33268Z" fill="#90C6CD"/>
</svg>
