<?xml version="1.0" encoding="UTF-8"?>
<!-- Generator: visioncortex VTracer 0.6.3 -->
<svg version="1.1" xmlns="http://www.w3.org/2000/svg" width="1280" height="731">
<path d="M0 0 C422.4 0 844.8 0 1280 0 C1280 241.23 1280 482.46 1280 731 C857.6 731 435.2 731 0 731 C0 489.77 0 248.54 0 0 Z " fill="#F9FCFE" transform="translate(0,0)"/>
<path d="M0 0 C1.18 0.59 2.35 1.17 3.57 1.78 C21.43 11.08 47.79 27.2 57 46 C57.86 51.04 57.78 54.7 55.12 59.12 C50.81 61.72 46.92 62.07 42 61 C37.06 58.24 33.53 54.62 29.69 50.56 C4.79 25.23 -28.09 10.37 -63 5 C-63.97 4.85 -64.95 4.7 -65.95 4.54 C-72.1 3.82 -78.31 3.91 -84.5 3.88 C-85.37 3.87 -86.23 3.87 -87.13 3.86 C-127.72 3.97 -168.91 20.68 -198 49 C-199.1 50.02 -200.2 51.05 -201.29 52.07 C-229.65 78.93 -247.59 118.73 -249.11 157.79 C-249.36 169.68 -249.19 181.28 -247 193 C-246.88 193.68 -246.75 194.37 -246.63 195.07 C-244.94 204.17 -242.55 212.86 -239.38 221.56 C-239.07 222.39 -238.77 223.22 -238.46 224.07 C-237.16 228.28 -237.16 228.28 -234 231 C-234.01 229.76 -234.02 228.53 -234.03 227.26 C-234.11 215.6 -234.17 203.95 -234.21 192.3 C-234.23 186.31 -234.26 180.32 -234.3 174.33 C-234.35 168.54 -234.37 162.76 -234.38 156.98 C-234.39 154.77 -234.4 152.57 -234.42 150.37 C-234.45 147.27 -234.46 144.18 -234.45 141.09 C-234.47 140.18 -234.48 139.28 -234.5 138.34 C-234.46 132.43 -233.38 127.92 -230 123 C-226.67 119.98 -224.62 119.1 -220.19 118.38 C-216.69 118.56 -214.65 119.65 -211.79 121.63 C-211.01 122.18 -210.22 122.72 -209.41 123.28 C-205.62 125.99 -201.86 128.72 -198.12 131.5 C-196.45 132.74 -194.78 133.98 -193.1 135.22 C-192.25 135.85 -191.41 136.47 -190.54 137.12 C-186.53 140.09 -182.51 143.04 -178.5 146 C-176.92 147.17 -175.33 148.33 -173.75 149.5 C-172.97 150.08 -172.18 150.65 -171.38 151.25 C-126.25 184.5 -126.25 184.5 -123.87 186.25 C-122.3 187.41 -120.72 188.57 -119.15 189.73 C-115.06 192.74 -110.98 195.76 -106.9 198.78 C-106.06 199.4 -105.22 200.03 -104.35 200.67 C-102.76 201.85 -101.17 203.03 -99.58 204.21 C-94.49 207.97 -89.3 211.53 -84 215 C-79.87 213.02 -76.29 210.52 -72.56 207.88 C-71.83 207.35 -71.09 206.83 -70.33 206.3 C-63.3 201.28 -56.44 196.05 -49.59 190.79 C-44.21 186.66 -38.78 182.63 -33.23 178.72 C-25.89 173.53 -18.68 168.16 -11.46 162.81 C-6.69 159.29 -1.91 155.78 2.86 152.26 C6.89 149.3 10.91 146.33 14.93 143.36 C22.26 137.94 29.6 132.52 37 127.19 C37.57 126.77 38.14 126.36 38.73 125.93 C43.59 122.44 47 121.59 53 122 C56.3 123.35 57.67 124.49 59.61 127.49 C61.45 132.13 61.43 136.16 61.42 141.1 C61.43 142.11 61.43 143.11 61.44 144.14 C61.47 147.44 61.47 150.74 61.48 154.05 C61.49 156.34 61.51 158.64 61.52 160.93 C61.57 166.97 61.59 173.01 61.61 179.04 C61.65 188.72 61.71 198.39 61.77 208.07 C61.79 211.45 61.8 214.84 61.81 218.22 C61.82 220.29 61.83 222.35 61.84 224.41 C61.84 225.36 61.84 226.31 61.85 227.28 C61.85 228.14 61.86 229 61.86 229.89 C61.87 231.01 61.87 231.01 61.87 232.16 C61.89 234.1 61.89 234.1 63 236 C63.25 235.38 63.49 234.77 63.75 234.14 C64.88 231.33 66.03 228.54 67.19 225.75 C67.57 224.78 67.96 223.81 68.36 222.82 C72.1 213.85 72.1 213.85 77 211 C80.62 209.84 82.48 209.84 86.12 210.94 C89.84 213.61 91.91 216.53 93 221 C92.64 226.42 91.09 230.94 89 235.88 C88.69 236.61 88.38 237.34 88.06 238.1 C69.8 280.6 69.8 280.6 55 288 C50.91 288.52 46.76 288.94 43.04 286.95 C40.91 285.19 39.25 283.49 38 281 C37.9 279.38 37.85 277.75 37.84 276.13 C37.83 274.58 37.83 274.58 37.81 273.01 C37.81 271.88 37.8 270.74 37.79 269.57 C37.78 268.38 37.77 267.19 37.76 265.97 C37.74 262.7 37.72 259.43 37.7 256.16 C37.67 252.75 37.65 249.33 37.62 245.92 C37.57 239.45 37.53 232.99 37.48 226.52 C37.43 219.16 37.38 211.8 37.32 204.43 C37.21 189.29 37.1 174.15 37 159 C35.9 159.62 34.81 160.23 33.68 160.87 C33.06 161.22 32.45 161.56 31.81 161.92 C29.12 163.53 26.71 165.43 24.25 167.38 C18.84 171.61 13.35 175.74 7.81 179.81 C7 180.41 6.19 181 5.36 181.62 C-0.79 186.13 -6.97 190.58 -13.16 195.03 C-19.67 199.73 -26.09 204.55 -32.5 209.39 C-51.39 223.59 -51.39 223.59 -61 230 C-61.33 230.99 -61.66 231.98 -62 233 C-61.33 233.21 -60.66 233.42 -59.98 233.64 C-55.97 235.47 -52.82 238.03 -49.38 240.75 C-47.85 241.94 -46.32 243.12 -44.8 244.3 C-43.61 245.22 -43.61 245.22 -42.4 246.15 C-38.52 249.14 -34.57 252.04 -30.62 254.94 C-29.84 255.52 -29.05 256.1 -28.23 256.69 C-26.63 257.87 -25.02 259.05 -23.41 260.23 C-21.01 261.99 -18.61 263.77 -16.21 265.54 C-9.07 270.81 -1.92 276.07 5.28 281.25 C8.23 283.37 11.18 285.51 14.13 287.64 C15.75 288.82 17.39 289.99 19.02 291.16 C23.29 294.3 26.36 296.75 28 302 C28.73 307.81 27.53 310.44 24 315 C21.82 316.75 19.78 318.26 17.44 319.75 C16.46 320.38 16.46 320.38 15.47 321.03 C-26.68 347.83 -78.88 357.09 -127.83 346.38 C-149.91 341.18 -187.02 331.26 -200 311 C-200.58 307.19 -200.26 305.45 -198.32 302.09 C-195.91 298.88 -193.59 296.83 -190.38 294.44 C-189.82 294.02 -189.26 293.6 -188.68 293.17 C-186.79 291.76 -184.9 290.38 -183 289 C-181.98 288.26 -181.98 288.26 -180.94 287.5 C-177.22 284.8 -173.49 282.11 -169.75 279.43 C-158.43 271.28 -147.23 262.95 -136.08 254.56 C-128.41 248.79 -120.68 243.12 -112.94 237.44 C-111.57 236.42 -110.22 235.38 -108.88 234.32 C-107 233 -107 233 -105 233 C-105 232.34 -105 231.68 -105 231 C-105.66 231 -106.32 231 -107 231 C-108.12 229.87 -109.24 228.74 -110.34 227.59 C-113.92 224.16 -117.99 221.29 -121.94 218.31 C-122.88 217.6 -123.82 216.89 -124.79 216.15 C-130.39 211.92 -136.03 207.77 -141.76 203.72 C-149.11 198.53 -156.31 193.16 -163.54 187.81 C-165.95 186.04 -168.36 184.26 -170.77 182.48 C-171.55 181.91 -172.33 181.33 -173.14 180.74 C-174.71 179.58 -176.27 178.43 -177.84 177.28 C-181.99 174.23 -186.12 171.16 -190.24 168.08 C-191.1 167.44 -191.96 166.8 -192.85 166.14 C-194.49 164.91 -196.13 163.68 -197.77 162.44 C-198.51 161.89 -199.26 161.34 -200.02 160.77 C-201 160.04 -201 160.04 -201.99 159.29 C-204.24 157.85 -206.52 156.96 -209 156 C-209 156.63 -209 157.26 -209 157.9 C-209.02 173.2 -209.06 188.5 -209.13 203.8 C-209.17 211.2 -209.19 218.6 -209.2 226 C-209.2 232.45 -209.22 238.89 -209.26 245.34 C-209.28 248.76 -209.29 252.17 -209.29 255.59 C-209.28 259.4 -209.31 263.21 -209.34 267.03 C-209.33 268.16 -209.32 269.28 -209.31 270.45 C-209.44 278.99 -209.44 278.99 -212.41 282.69 C-215.69 285.62 -217.41 286.06 -221.68 286.21 C-228.38 285.6 -232.15 282.17 -236.44 277.19 C-260.34 246.09 -273.43 206.22 -273.38 167.12 C-273.37 166.13 -273.37 166.13 -273.37 165.12 C-273.3 144.69 -269.71 125.27 -263 106 C-262.57 104.76 -262.14 103.52 -261.7 102.24 C-255.26 85.02 -246.36 68.46 -235 54 C-234.34 53.12 -233.69 52.25 -233.01 51.34 C-221.52 36.53 -207.55 23.43 -192 13 C-191.42 12.61 -190.85 12.22 -190.25 11.82 C-133.4 -25.83 -61 -30.41 0 0 Z " fill="#22A9E0" transform="translate(495,201)"/>
<path d="M0 0 C1.61 0.01 1.61 0.01 3.25 0.02 C4.93 0.04 4.93 0.04 6.64 0.07 C7.78 0.08 8.91 0.09 10.07 0.1 C12.87 0.12 15.66 0.15 18.46 0.2 C20.72 6.36 22.95 12.53 25.02 18.76 C25.23 19.39 25.44 20.02 25.66 20.67 C27.15 25.16 28.52 29.68 29.78 34.24 C30.46 36.48 30.46 36.48 32.46 39.2 C32.84 38.05 33.22 36.9 33.62 35.72 C35.04 31.48 36.47 27.25 37.9 23.01 C38.52 21.18 39.14 19.34 39.75 17.51 C40.63 14.87 41.52 12.24 42.42 9.61 C42.69 8.78 42.97 7.95 43.25 7.1 C45.23 1.31 45.23 1.31 47.46 0.2 C49.33 0.1 51.21 0.06 53.09 0.06 C54.2 0.06 55.32 0.06 56.47 0.06 C57.64 0.06 58.81 0.07 60.02 0.07 C61.19 0.07 62.37 0.06 63.58 0.06 C64.7 0.06 65.81 0.06 66.96 0.06 C67.99 0.06 69.02 0.06 70.08 0.07 C72.46 0.2 72.46 0.2 73.46 1.2 C73.55 3.31 73.57 5.43 73.57 7.55 C73.57 8.21 73.57 8.88 73.57 9.56 C73.57 11.76 73.56 13.97 73.55 16.17 C73.55 17.69 73.55 19.21 73.55 20.74 C73.55 24.75 73.54 28.77 73.53 32.79 C73.52 36.88 73.51 40.98 73.51 45.07 C73.5 53.11 73.48 61.15 73.46 69.2 C70.64 69.22 67.83 69.24 65.02 69.26 C64.22 69.27 63.41 69.27 62.59 69.28 C60.54 69.29 58.5 69.25 56.46 69.2 C55.46 68.2 55.46 68.2 55.34 66.14 C55.34 65.24 55.34 64.33 55.34 63.4 C55.34 62.38 55.34 61.36 55.34 60.31 C55.35 59.2 55.35 58.09 55.36 56.94 C55.36 55.81 55.36 54.68 55.36 53.52 C55.37 49.89 55.38 46.26 55.39 42.63 C55.4 40.18 55.4 37.73 55.41 35.28 C55.42 29.25 55.44 23.22 55.46 17.2 C54.8 17.2 54.14 17.2 53.46 17.2 C53.36 18.13 53.27 19.07 53.17 20.04 C52.44 25.13 50.73 29.87 49.08 34.72 C48.58 36.21 48.58 36.21 48.07 37.72 C47.02 40.86 45.96 44 44.89 47.13 C44.18 49.27 43.46 51.4 42.74 53.54 C40.99 58.76 39.22 63.98 37.46 69.2 C35.5 69.22 33.54 69.24 31.58 69.26 C29.95 69.28 29.95 69.28 28.28 69.29 C25.46 69.2 25.46 69.2 23.46 68.2 C22.47 65.53 21.6 62.89 20.78 60.17 C20.52 59.36 20.27 58.54 20.01 57.7 C19.19 55.08 18.39 52.45 17.58 49.82 C16.78 47.23 15.98 44.64 15.18 42.05 C14.68 40.44 14.18 38.82 13.69 37.21 C11.81 31.11 9.65 25.22 7.46 19.2 C7.13 35.7 6.8 52.2 6.46 69.2 C1.84 69.2 -2.78 69.2 -7.54 69.2 C-9.37 67.37 -8.69 64.51 -8.7 62.05 C-8.71 60.74 -8.72 59.43 -8.73 58.07 C-8.74 56.62 -8.74 55.18 -8.75 53.73 C-8.75 52.26 -8.76 50.78 -8.76 49.31 C-8.77 46.22 -8.78 43.12 -8.78 40.03 C-8.79 36.06 -8.81 32.09 -8.84 28.12 C-8.86 25.08 -8.87 22.03 -8.87 18.99 C-8.87 17.53 -8.88 16.06 -8.89 14.6 C-8.91 12.55 -8.9 10.51 -8.9 8.47 C-8.9 7.3 -8.91 6.14 -8.91 4.93 C-8.79 4.03 -8.67 3.13 -8.54 2.2 C-5.14 -0.07 -3.98 -0.04 0 0 Z " fill="#21A9DF" transform="translate(575.54296875,265.8046875)"/>
<path d="M0 0 C0.15 0.91 0.15 0.91 0.3 1.84 C2.09 12.75 2.09 12.75 7.91 21.75 C11.23 23.73 14.31 23.68 18 23 C23.8 20.76 29.07 17.47 34.21 14.02 C36.2 12.89 37.72 12.28 40 12 C48.7 14.89 56.8 22.45 64 28 C64.58 28.44 65.16 28.88 65.76 29.34 C68.68 31.65 69.9 32.62 70.88 36.31 C70.92 37.2 70.96 38.09 71 39 C66.9 42.68 62.82 44.58 57.75 46.5 C56.96 46.8 56.18 47.1 55.37 47.41 C23.98 59.06 -13.03 58.56 -43.87 45.41 C-52.31 41.42 -52.31 41.42 -54 37 C-50.8 33.64 -47.66 30.93 -43.75 28.44 C-38.7 25.14 -33.74 21.74 -28.81 18.25 C-28.1 17.75 -27.39 17.25 -26.66 16.73 C-22.84 14.03 -19.03 11.3 -15.24 8.56 C-14.47 8.01 -13.69 7.45 -12.9 6.88 C-11.41 5.81 -9.92 4.74 -8.44 3.66 C-7.77 3.18 -7.1 2.7 -6.41 2.2 C-5.53 1.56 -5.53 1.56 -4.63 0.91 C-3 0 -3 0 0 0 Z " fill="#1B7896" transform="translate(400,467)"/>
<path d="M0 0 C0.75 0 1.5 0 2.28 0 C4.53 -0 6.78 -0.04 9.03 -0.08 C19.59 -0.16 28.96 0.65 37.01 8.12 C45.58 17.59 48.28 26.55 47.93 39.36 C47.32 49.98 42.42 57.33 34.63 64.37 C26.34 70.55 15.74 69.66 5.91 69.58 C3.61 69.56 1.31 69.56 -0.99 69.56 C-2.45 69.55 -3.91 69.55 -5.37 69.54 C-6.06 69.54 -6.75 69.54 -7.46 69.54 C-12.25 69.49 -12.25 69.49 -13.37 68.37 C-13.47 66.33 -13.51 64.28 -13.51 62.23 C-13.52 60.92 -13.53 59.6 -13.53 58.25 C-13.54 56.8 -13.54 55.35 -13.54 53.91 C-13.54 52.43 -13.54 50.96 -13.55 49.49 C-13.55 46.39 -13.56 43.3 -13.55 40.21 C-13.55 36.24 -13.57 32.27 -13.59 28.3 C-13.6 25.25 -13.6 22.21 -13.6 19.17 C-13.6 17.7 -13.6 16.24 -13.61 14.77 C-13.62 12.73 -13.62 10.69 -13.61 8.64 C-13.61 7.48 -13.61 6.31 -13.62 5.11 C-12.98 -1.96 -5.46 0.04 0 0 Z " fill="#21A9E0" transform="translate(740.369140625,265.62890625)"/>
<path d="M0 0 C8.35 6.22 13.69 14.82 15.64 24.98 C17.03 35.99 16.34 48.03 9.96 57.46 C4.91 63.68 -0.14 67.65 -8.23 68.75 C-10.49 68.89 -12.72 68.93 -14.98 68.89 C-16.17 68.88 -16.17 68.88 -17.38 68.87 C-26.56 68.6 -32.63 65.64 -39.32 59.36 C-45.88 52.1 -48.73 40.75 -48.39 31.13 C-46.95 20.13 -42.85 9.71 -33.96 2.78 C-24.47 -3.76 -10.51 -5.69 0 0 Z " fill="#22AAE1" transform="translate(946.04296875,267.54296875)"/>
<path d="M0 0 C3.13 1.34 5.41 3.09 8.06 5.23 C9.22 6.15 10.37 7.07 11.53 7.98 C12.47 8.72 12.47 8.72 13.43 9.48 C17.08 12.33 20.83 15.06 24.56 17.8 C25.37 18.39 26.17 18.98 27 19.59 C28.66 20.8 30.31 22.02 31.97 23.23 C36.74 26.74 41.51 30.26 46.28 33.78 C50.4 36.82 54.54 39.85 58.68 42.86 C59.97 43.8 59.97 43.8 61.28 44.76 C62.92 45.96 64.56 47.15 66.21 48.34 C70.3 51.33 73.98 54.35 77.44 58.05 C74.24 61.73 70.73 63.57 66.31 65.42 C65.61 65.72 64.91 66.02 64.19 66.33 C21.37 84.16 -26.03 85.37 -69.12 67.63 C-70.07 67.23 -71.02 66.83 -72 66.42 C-73.38 65.85 -73.38 65.85 -74.79 65.26 C-75.64 64.89 -76.49 64.52 -77.37 64.13 C-78.13 63.8 -78.89 63.47 -79.68 63.13 C-81.56 62.05 -81.56 62.05 -83.56 59.05 C-83.02 58.69 -82.47 58.33 -81.91 57.96 C-76.38 54.31 -71 50.5 -65.69 46.55 C-64.01 45.31 -62.34 44.07 -60.66 42.83 C-59.82 42.2 -58.97 41.57 -58.1 40.93 C-54.09 37.96 -50.08 35 -46.06 32.05 C-44.48 30.88 -42.91 29.72 -41.33 28.56 C-40.55 27.98 -39.76 27.4 -38.96 26.81 C-35.71 24.42 -32.47 22.03 -29.23 19.64 C-27.63 18.46 -26.04 17.29 -24.44 16.12 C-20.66 13.35 -16.91 10.56 -13.21 7.69 C-12.53 7.17 -11.85 6.65 -11.15 6.11 C-9.88 5.14 -8.62 4.15 -7.37 3.16 C-4.87 1.26 -3.19 0.06 0 0 Z M-21.5 23.17 C-22.76 24.09 -24.02 25.01 -25.29 25.93 C-25.97 26.43 -26.65 26.93 -27.36 27.45 C-31.35 30.34 -35.4 33.16 -39.44 35.98 C-40.28 36.58 -41.12 37.17 -41.99 37.78 C-46.09 40.65 -50.2 43.48 -54.36 46.25 C-55.11 46.74 -55.85 47.24 -56.61 47.75 C-58 48.67 -59.4 49.59 -60.8 50.5 C-64.31 52.7 -64.31 52.7 -66.24 56.19 C-66.35 56.8 -66.45 57.42 -66.56 58.05 C-46.92 75.28 -13.67 75.34 10.83 73.91 C23.64 72.85 35.84 69.28 47.69 64.48 C48.42 64.19 49.14 63.9 49.89 63.6 C54.77 61.63 54.77 61.63 58.44 58.05 C58.74 55.11 58.74 55.11 57.44 52.05 C52.68 46.99 46.52 43.18 40.81 39.3 C39.98 38.72 39.15 38.14 38.29 37.55 C37.48 37 36.67 36.44 35.84 35.88 C35.11 35.38 34.39 34.88 33.64 34.37 C31.29 32.96 29.05 31.9 26.44 31.05 C23.97 31.7 23.97 31.7 21.62 33.11 C20.76 33.58 19.9 34.05 19.01 34.54 C16 36.3 13.04 38.11 10.13 40.03 C6.19 42.4 1.91 42.8 -2.56 42.05 C-10.03 36.73 -11.09 27.53 -12.56 19.05 C-16.52 19.05 -18.46 20.9 -21.5 23.17 Z " fill="#F9FCFE" transform="translate(412.5625,447.953125)"/>
<path d="M0 0 C6.87 4.55 11.28 12.37 13 20.32 C14 32.34 14.1 43.68 6.69 53.7 C-0.13 60.36 -7.02 61.75 -16.35 61.66 C-23.27 61.02 -28.6 58.15 -33.38 53.14 C-39.54 45.05 -41.49 35.61 -40.82 25.61 C-39.69 17.52 -36.72 8.73 -30.59 3.12 C-21.26 -3.34 -10.35 -5.27 0 0 Z " fill="#1A7896" transform="translate(752,351.67578125)"/>
<path d="M0 0 C3.42 0.17 5.82 0.49 8.49 2.73 C11.82 6.77 14.21 11.35 16.57 16 C18.27 19.29 20.25 22.39 22.24 25.51 C23.97 28.35 25.69 31.18 27.33 34.06 C28.55 36.38 28.55 36.38 30.74 37.26 C30.76 36.24 30.78 35.23 30.8 34.18 C30.87 30.4 30.96 26.62 31.06 22.85 C31.09 21.21 31.13 19.58 31.16 17.94 C31.21 15.59 31.26 13.25 31.32 10.9 C31.34 10.16 31.35 9.43 31.36 8.67 C31.51 3.49 31.51 3.49 33.74 1.26 C36.09 1.03 36.09 1.03 38.8 1.08 C40.15 1.09 40.15 1.09 41.52 1.1 C43.74 1.26 43.74 1.26 44.74 2.26 C44.83 4.38 44.86 6.5 44.85 8.62 C44.85 9.28 44.85 9.95 44.85 10.63 C44.85 12.83 44.84 15.03 44.84 17.24 C44.83 18.76 44.83 20.28 44.83 21.81 C44.83 25.82 44.82 29.84 44.81 33.86 C44.8 37.95 44.79 42.05 44.79 46.14 C44.78 54.18 44.76 62.22 44.74 70.26 C42.49 70.37 40.24 70.44 37.99 70.51 C36.74 70.55 35.48 70.6 34.19 70.64 C30.74 70.26 30.74 70.26 28.38 68.46 C26.57 66.16 25.15 63.83 23.74 61.26 C23.24 60.46 22.74 59.66 22.22 58.84 C20.69 56.41 19.24 53.94 17.8 51.45 C13.78 44.61 9.64 37.96 5.07 31.48 C3.74 29.26 3.74 29.26 3.74 26.26 C3.08 26.26 2.42 26.26 1.74 26.26 C1.74 40.78 1.74 55.3 1.74 70.26 C-2.55 70.26 -6.84 70.26 -11.26 70.26 C-13.08 68.44 -12.4 65.57 -12.41 63.12 C-12.41 61.81 -12.42 60.49 -12.43 59.14 C-12.43 57.69 -12.43 56.25 -12.43 54.8 C-12.43 53.33 -12.44 51.85 -12.44 50.38 C-12.45 47.29 -12.45 44.19 -12.45 41.1 C-12.45 37.13 -12.46 33.16 -12.48 29.19 C-12.49 26.15 -12.49 23.1 -12.49 20.06 C-12.49 18.6 -12.5 17.13 -12.5 15.67 C-12.51 13.62 -12.51 11.58 -12.5 9.53 C-12.51 8.37 -12.51 7.2 -12.51 6 C-11.92 -0.52 -5.23 0.17 0 0 Z " fill="#22AAE1" transform="translate(985.261474609375,264.735595703125)"/>
<path d="M0 0 C0.88 0 1.76 0 2.67 0 C3.67 0 4.66 -0 5.69 -0.01 C6.77 0 7.85 0.01 8.97 0.02 C10.62 0.02 10.62 0.02 12.31 0.02 C14.65 0.02 16.99 0.03 19.33 0.04 C22.92 0.06 26.51 0.06 30.1 0.06 C32.37 0.07 34.64 0.07 36.9 0.08 C37.99 0.08 39.07 0.08 40.18 0.08 C41.18 0.09 42.17 0.1 43.2 0.1 C44.08 0.11 44.96 0.11 45.86 0.11 C47.87 0.25 47.87 0.25 48.87 1.25 C48.94 3.27 48.95 5.29 48.93 7.31 C48.92 8.41 48.91 9.52 48.9 10.66 C48.89 11.51 48.88 12.37 48.87 13.25 C47.87 13.27 46.88 13.3 45.85 13.32 C42.18 13.42 38.5 13.52 34.82 13.62 C33.23 13.66 31.64 13.7 30.04 13.74 C27.76 13.8 25.47 13.87 23.18 13.93 C22.11 13.96 22.11 13.96 21.01 13.98 C17.65 13.8 17.65 13.8 14.87 15.25 C14.8 17.1 14.78 18.96 14.81 20.81 C14.81 21.82 14.82 22.83 14.83 23.88 C14.84 24.66 14.86 25.44 14.87 26.25 C15.65 26.27 16.43 26.3 17.24 26.32 C20.76 26.44 24.28 26.56 27.81 26.68 C29.65 26.74 29.65 26.74 31.54 26.8 C32.71 26.85 33.88 26.89 35.08 26.93 C36.71 26.99 36.71 26.99 38.37 27.04 C40.87 27.25 40.87 27.25 41.87 28.25 C41.94 30.27 41.95 32.29 41.93 34.31 C41.92 35.41 41.91 36.52 41.9 37.66 C41.89 38.51 41.88 39.37 41.87 40.25 C41.09 40.27 40.3 40.3 39.5 40.32 C35.97 40.44 32.45 40.56 28.93 40.68 C27.7 40.72 26.47 40.76 25.2 40.8 C24.03 40.85 22.86 40.89 21.65 40.93 C20.03 40.99 20.03 40.99 18.37 41.04 C15.93 40.97 15.93 40.97 14.87 42.25 C14.8 44.27 14.78 46.29 14.81 48.31 C14.81 49.41 14.82 50.52 14.83 51.66 C14.84 52.51 14.86 53.37 14.87 54.25 C15.86 54.27 16.86 54.3 17.88 54.32 C21.56 54.42 25.24 54.52 28.91 54.62 C30.51 54.66 32.1 54.7 33.69 54.74 C35.98 54.8 38.27 54.87 40.55 54.93 C41.27 54.95 41.98 54.96 42.72 54.98 C47.75 55.13 47.75 55.13 48.87 56.25 C48.94 58.43 48.95 60.62 48.93 62.81 C48.92 64.01 48.91 65.2 48.9 66.44 C48.89 67.37 48.88 68.29 48.87 69.25 C41.48 69.27 34.09 69.29 26.71 69.3 C24.19 69.31 21.68 69.31 19.16 69.32 C15.55 69.33 11.95 69.34 8.34 69.34 C6.64 69.35 6.64 69.35 4.91 69.36 C3.87 69.36 2.83 69.36 1.75 69.36 C0.83 69.36 -0.09 69.37 -1.04 69.37 C-3.13 69.25 -3.13 69.25 -4.13 68.25 C-4.24 66.2 -4.27 64.15 -4.28 62.11 C-4.28 60.79 -4.29 59.48 -4.3 58.12 C-4.3 56.68 -4.3 55.23 -4.3 53.78 C-4.3 52.31 -4.31 50.84 -4.31 49.36 C-4.32 46.27 -4.32 43.18 -4.32 40.08 C-4.32 36.11 -4.33 32.14 -4.35 28.18 C-4.36 25.13 -4.36 22.09 -4.36 19.04 C-4.36 17.58 -4.37 16.11 -4.37 14.65 C-4.38 12.61 -4.38 10.56 -4.37 8.52 C-4.38 7.35 -4.38 6.19 -4.38 4.99 C-4.08 1.64 -3.45 0.4 0 0 Z " fill="#22AAE1" transform="translate(667.1319732666016,265.7527618408203)"/>
<path d="M0 0 C0.76 0 1.51 0 2.29 0.01 C4.56 0.01 6.84 -0.01 9.11 -0.04 C27 -0.12 27 -0.12 32.91 5.63 C33.44 6.52 33.98 7.41 34.53 8.32 C35.11 9.19 35.69 10.05 36.28 10.95 C38.08 15.79 38.22 20.22 37.53 25.32 C35.34 29.8 32.55 32.42 28.53 35.32 C29.15 38.93 30.13 42.02 31.6 45.37 C32.2 46.76 32.2 46.76 32.82 48.18 C33.24 49.13 33.66 50.09 34.1 51.07 C34.93 52.98 35.77 54.89 36.6 56.81 C36.97 57.65 37.34 58.49 37.72 59.36 C38.53 61.32 38.53 61.32 38.53 62.32 C36.11 62.46 33.7 62.56 31.28 62.63 C30.6 62.68 29.92 62.72 29.22 62.76 C25.75 62.85 23.94 62.67 21.28 60.38 C19.01 56.41 17.41 52.36 15.85 48.07 C15.24 46.44 14.63 44.81 14.02 43.18 C13.76 42.46 13.5 41.75 13.23 41.01 C12.66 39.32 12.66 39.32 11.53 38.32 C8.56 38.32 5.59 38.32 2.53 38.32 C2.2 46.24 1.87 54.16 1.53 62.32 C-8.43 62.52 -8.43 62.52 -11.47 62.32 C-14.11 59.68 -13.72 58.49 -13.73 54.8 C-13.73 53.65 -13.74 52.49 -13.74 51.3 C-13.74 50.05 -13.74 48.8 -13.73 47.51 C-13.73 46.23 -13.74 44.95 -13.74 43.63 C-13.74 40.92 -13.74 38.21 -13.73 35.5 C-13.72 32.02 -13.72 28.55 -13.73 25.07 C-13.74 21.76 -13.74 18.45 -13.73 15.13 C-13.74 13.88 -13.74 12.63 -13.74 11.34 C-13.74 10.19 -13.73 9.03 -13.73 7.84 C-13.72 6.82 -13.72 5.8 -13.72 4.75 C-13.01 -2.03 -5.18 0.02 0 0 Z " fill="#1A7896" transform="translate(666.466796875,349.677734375)"/>
<path d="M0 0 C6 4.21 9.8 10.62 12.08 17.46 C12.58 20.93 12.58 20.93 13.08 24.46 C7.14 24.46 1.2 24.46 -4.92 24.46 C-5.5 23.06 -6.07 21.66 -6.67 20.21 C-8.9 15.13 -8.9 15.13 -12.92 11.46 C-17.06 11 -19.74 11.09 -23.67 12.34 C-29.45 17.8 -30.64 26.49 -31.17 34.09 C-31.04 40.03 -30.51 47.48 -26.48 52.12 C-22.09 54.97 -16.99 55.39 -11.92 54.46 C-7.02 51.8 -5.88 48.41 -3.92 43.46 C-1.5 42.25 0.13 42.29 2.83 42.27 C4.09 42.25 4.09 42.25 5.38 42.23 C8.51 42.5 11.14 43.37 14.08 44.46 C11.06 53.72 8.37 60.43 0.04 65.77 C-8.4 69.97 -19.73 69.95 -28.8 67.77 C-31.03 66.84 -32.91 65.8 -34.92 64.46 C-35.62 64.03 -36.33 63.59 -37.05 63.14 C-44.29 58.25 -48.53 51.3 -50.54 42.84 C-51.98 29.91 -50.33 19.35 -42.92 8.46 C-32.72 -3.38 -14.16 -6.8 0 0 Z " fill="#21A9E0" transform="translate(878.91796875,267.5390625)"/>
<path d="M0 0 C2.05 -0.01 4.11 -0.04 6.16 -0.07 C23.79 -0.14 23.79 -0.14 29.91 5.21 C30.34 5.9 30.77 6.59 31.22 7.3 C31.9 8.34 31.9 8.34 32.6 9.4 C35.79 14.95 35.39 20.98 34.66 27.24 C32.46 31.99 29.04 35.43 24.66 38.24 C20.03 39.7 15.14 39.35 10.34 39.3 C6.04 39.27 6.04 39.27 1.66 39.24 C1.33 46.83 1 54.42 0.66 62.24 C-9.4 62.34 -9.4 62.34 -12.34 62.24 C-14.1 60.49 -13.47 58.02 -13.47 55.63 C-13.48 54.44 -13.48 53.24 -13.48 52 C-13.48 50.7 -13.48 49.4 -13.48 48.05 C-13.48 46.71 -13.48 45.37 -13.48 44.03 C-13.48 41.21 -13.48 38.4 -13.47 35.58 C-13.47 31.97 -13.47 28.35 -13.48 24.74 C-13.48 21.97 -13.48 19.2 -13.48 16.43 C-13.48 14.44 -13.48 12.46 -13.48 10.48 C-13.48 9.28 -13.48 8.08 -13.47 6.85 C-13.47 5.79 -13.47 4.72 -13.47 3.63 C-13.15 -2.31 -4.55 0.01 0 0 Z " fill="#1A7896" transform="translate(850.343505859375,349.759765625)"/>
<path d="M0 0 C4.83 3.21 8.31 8.17 9.95 13.73 C10.24 15.65 10.24 15.65 10.3 18.53 C0.72 21.34 0.72 21.34 -3.7 19.53 C-5 17.53 -5.94 15.55 -6.84 13.34 C-7.56 11.34 -7.56 11.34 -9.7 10.53 C-13.31 10.26 -16.04 10.29 -19.45 11.53 C-23.27 14.92 -24.43 18.48 -24.87 23.45 C-24.99 25.66 -25.05 27.87 -25.07 30.09 C-25.09 30.81 -25.1 31.53 -25.12 32.27 C-25.06 38.14 -24.09 43.08 -19.83 47.44 C-17.27 48.75 -15.5 48.93 -12.64 48.9 C-11.35 48.91 -11.35 48.91 -10.04 48.93 C-7.25 48.45 -6.34 47.81 -4.7 45.53 C-4.45 42.4 -4.45 42.4 -4.7 39.53 C-5.66 39.44 -5.66 39.44 -6.63 39.34 C-7.46 39.26 -8.29 39.18 -9.14 39.09 C-9.96 39.01 -10.78 38.93 -11.63 38.84 C-13.7 38.53 -13.7 38.53 -14.7 37.53 C-14.97 31.79 -14.97 31.79 -14.7 29.53 C-12.7 27.53 -12.7 27.53 -10.47 27.28 C-9.11 27.29 -9.11 27.29 -7.73 27.3 C-6.74 27.3 -5.76 27.3 -4.75 27.3 C-3.72 27.31 -2.7 27.33 -1.64 27.34 C-0.6 27.34 0.43 27.34 1.49 27.34 C9.16 27.39 9.16 27.39 10.3 28.53 C10.39 30.9 10.42 33.25 10.4 35.62 C10.4 36.33 10.4 37.04 10.39 37.77 C10.39 40.05 10.38 42.32 10.36 44.59 C10.36 46.13 10.35 47.66 10.35 49.2 C10.34 52.98 10.32 56.75 10.3 60.53 C7.93 60.65 7.93 60.65 5.3 60.53 C4.64 59.87 3.98 59.21 3.3 58.53 C3.3 57.54 3.3 56.55 3.3 55.53 C2.57 55.96 1.85 56.39 1.1 56.84 C-7.14 61.4 -13.69 63 -22.98 61.05 C-28.87 59.18 -33.96 55.65 -36.99 50.21 C-37.97 48 -38.86 45.79 -39.7 43.53 C-40.03 42.87 -40.36 42.21 -40.7 41.53 C-41.98 28.48 -41.55 16.86 -33.84 5.89 C-31.56 3.38 -29.69 2.2 -26.64 0.78 C-25.78 0.37 -24.92 -0.04 -24.04 -0.46 C-16.22 -3.85 -7.77 -3.48 0 0 Z " fill="#1A7896" transform="translate(630.69921875,351.47265625)"/>
<path d="M0 0 C1.17 0.01 2.35 0.03 3.56 0.04 C5.32 0.05 5.32 0.05 7.12 0.06 C10 0.23 10 0.23 11 1.23 C11.13 4.19 11.21 7.13 11.24 10.09 C11.28 11.92 11.31 13.76 11.34 15.6 C11.39 18.5 11.43 21.41 11.47 24.32 C11.51 27.11 11.56 29.91 11.62 32.71 C11.63 33.57 11.63 34.44 11.64 35.33 C11.74 39.96 12.02 43.94 14 48.23 C17.44 50.53 18.93 50.53 23 50.54 C24.05 50.56 25.1 50.58 26.18 50.59 C28.96 50.47 28.96 50.47 30.65 48.99 C32.35 46.77 32.38 45.56 32.4 42.79 C32.41 41.9 32.42 41 32.44 40.08 C32.44 39.12 32.44 38.16 32.44 37.16 C32.45 36.17 32.46 35.18 32.48 34.16 C32.52 31 32.54 27.83 32.56 24.67 C32.58 21.5 32.61 18.33 32.65 15.16 C32.67 13.19 32.69 11.21 32.69 9.24 C32.7 8.35 32.71 7.46 32.72 6.54 C32.73 5.75 32.73 4.97 32.74 4.16 C33 2.23 33 2.23 35 0.23 C37.09 -0.04 37.09 -0.04 39.5 -0.02 C40.29 -0.02 41.08 -0.03 41.9 -0.04 C44 0.23 44 0.23 46 2.23 C46.26 4.16 46.26 4.16 46.29 6.54 C46.3 7.43 46.31 8.32 46.33 9.24 C46.33 10.21 46.33 11.17 46.33 12.17 C46.34 13.17 46.35 14.17 46.35 15.19 C46.36 17.31 46.37 19.42 46.37 21.54 C46.37 24.76 46.41 27.97 46.45 31.19 C46.45 33.24 46.46 35.3 46.46 37.36 C46.47 38.31 46.49 39.27 46.5 40.25 C46.46 46.6 45.38 51.78 42 57.23 C35.95 62.47 28.87 63.61 21.06 63.54 C20.35 63.54 19.65 63.53 18.92 63.53 C11.21 63.35 5.28 61.53 -0.42 56.15 C-5.35 50.16 -5.45 41.54 -5.37 34.14 C-5.37 33.22 -5.37 32.31 -5.37 31.37 C-5.37 29.46 -5.36 27.55 -5.34 25.64 C-5.32 22.71 -5.32 19.78 -5.33 16.85 C-5.32 14.99 -5.31 13.12 -5.3 11.26 C-5.31 10.38 -5.31 9.51 -5.31 8.6 C-5.21 0.4 -5.21 0.4 0 0 Z " fill="#1A7896" transform="translate(779.00390625,349.76953125)"/>
<path d="M0 0 C1.37 0 2.75 0.02 4.12 0.04 C4.82 0.04 5.52 0.04 6.24 0.04 C11.42 0.09 11.42 0.09 12.56 1.23 C12.65 3.35 12.68 5.47 12.67 7.59 C12.67 8.25 12.67 8.91 12.67 9.6 C12.67 11.8 12.66 14 12.66 16.2 C12.65 17.73 12.65 19.25 12.65 20.77 C12.65 24.79 12.64 28.81 12.63 32.82 C12.62 36.92 12.61 41.01 12.61 45.11 C12.6 53.15 12.58 61.19 12.56 69.23 C9.75 69.26 6.93 69.28 4.12 69.29 C3.32 69.3 2.52 69.31 1.69 69.32 C-0.35 69.33 -2.4 69.28 -4.44 69.23 C-6.26 67.41 -5.58 64.54 -5.59 62.09 C-5.59 60.78 -5.6 59.46 -5.61 58.11 C-5.61 56.66 -5.61 55.21 -5.61 53.77 C-5.61 52.29 -5.62 50.82 -5.62 49.35 C-5.63 46.25 -5.63 43.16 -5.63 40.07 C-5.63 36.1 -5.64 32.13 -5.66 28.16 C-5.67 25.11 -5.67 22.07 -5.67 19.03 C-5.67 17.56 -5.68 16.1 -5.68 14.63 C-5.69 12.59 -5.69 10.54 -5.68 8.5 C-5.69 7.34 -5.69 6.17 -5.69 4.97 C-5.3 0.7 -4.19 0.28 0 0 Z " fill="#22AAE1" transform="translate(804.44140625,265.76953125)"/>
<path d="M0 0 C4.03 3.05 6.19 6.33 8 11 C8.44 15.01 8.42 18.97 8.38 23 C8.39 24.07 8.4 25.13 8.41 26.23 C8.38 33.24 7.37 37.54 3.38 43.38 C-0.3 45.89 -3.69 45.72 -8 45 C-12.95 42.76 -14.91 39.99 -17.17 35.28 C-18.58 31.41 -18.59 27.71 -18.5 23.62 C-18.49 22.79 -18.48 21.96 -18.46 21.1 C-18.21 13.24 -17.1 6.96 -11.25 1.38 C-6.93 -0.45 -4.68 -0.67 0 0 Z " fill="#FAFDFF" transform="translate(935,278)"/>
<path d="M0 0 C5.28 0.11 8.34 0.56 12.25 4.38 C17.83 11.68 18.97 18.3 18.25 27.38 C17.15 33.65 14.96 37.34 9.97 41.28 C6.4 43.55 3.23 43.51 -0.88 43.5 C-1.95 43.5 -3.03 43.51 -4.13 43.51 C-6.75 43.38 -6.75 43.38 -7.75 42.38 C-7.86 39.44 -7.91 36.53 -7.92 33.6 C-7.92 32.72 -7.92 31.83 -7.93 30.93 C-7.93 29.06 -7.94 27.19 -7.94 25.32 C-7.94 22.45 -7.96 19.59 -7.97 16.72 C-7.98 14.91 -7.98 13.1 -7.98 11.29 C-7.99 10.42 -7.99 9.56 -8 8.67 C-7.98 1.64 -7.04 0.09 0 0 Z " fill="#FAFDFF" transform="translate(751.75,278.625)"/>
<path d="M0 0 C5.18 4.8 6.8 9.54 7.2 16.45 C7.4 32.66 7.4 32.66 2.66 38.7 C-0.02 40.8 -2.41 40.53 -5.71 40.41 C-9.72 39.69 -11.29 38.04 -14 35 C-17.51 26.68 -17.4 15.67 -14.31 7.19 C-12.98 4.41 -11.99 2.99 -9.69 0.88 C-6.01 -0.32 -3.84 -0.74 0 0 Z " fill="#FAFDFF" transform="translate(743,361)"/>
<path d="M0 0 C1.23 -0.03 2.47 -0.06 3.74 -0.09 C7.66 0.45 8.75 1.29 11.12 4.38 C12.55 7.22 12.44 9.23 12.12 12.38 C10.58 14.55 10.58 14.55 8.12 16.38 C5.42 16.69 3.18 16.8 0.5 16.69 C-0.18 16.68 -0.86 16.67 -1.56 16.66 C-6.53 16.55 -6.53 16.55 -8.88 15.38 C-8.93 13.25 -8.97 11.13 -9 9 C-9.02 7.82 -9.05 6.63 -9.07 5.41 C-8.68 -0.58 -5.14 0.05 0 0 Z " fill="#FAFDFF" transform="translate(676.875,360.625)"/>
<path d="M0 0 C0.96 0.01 1.92 0.01 2.91 0.02 C4.35 0.01 4.35 0.01 5.81 0 C8.61 0.27 10.21 0.72 12.54 2.27 C14.52 5.23 14.83 5.92 14.85 9.27 C14.87 9.95 14.89 10.63 14.9 11.33 C14.54 13.27 14.54 13.27 13.5 15 C10.48 16.95 7.39 16.62 3.91 16.52 C2.87 16.51 2.87 16.51 1.81 16.5 C-3.31 16.42 -3.31 16.42 -4.46 15.27 C-4.59 13.12 -4.64 10.97 -4.65 8.83 C-4.66 7.65 -4.68 6.48 -4.69 5.27 C-4.4 1.52 -3.81 0.41 0 0 Z " fill="#FAFDFF" transform="translate(855.4609375,360.734375)"/>
<path d="M0 0 C1.81 1.12 1.81 1.12 3 3 C3.31 6.06 3.31 6.06 3 9 C1 11 1 11 -2.38 11.31 C-6.09 10.99 -7.37 10.52 -10 8 C-9.75 5.12 -9.75 5.12 -9 2 C-6.19 -0.21 -3.49 -0.45 0 0 Z " fill="#1A7896" transform="translate(410,391)"/>
<path d="M0 0 C2 3 2 3 1.62 5.69 C1.42 6.45 1.21 7.21 1 8 C-1.31 8.62 -1.31 8.62 -4 9 C-4.99 8.34 -5.98 7.68 -7 7 C-7.38 4.5 -7.38 4.5 -7 2 C-4 0 -4 0 0 0 Z " fill="#FAFDFF" transform="translate(384,496)"/>
<path d="M0 0 C2.62 -0.19 2.62 -0.19 5 0 C5.33 1.98 5.66 3.96 6 6 C4.35 6.33 2.7 6.66 1 7 C0.01 5.68 -0.98 4.36 -2 3 C-1.34 2.01 -0.68 1.02 0 0 Z " fill="#FAFDFF" transform="translate(403,509)"/>
<path d="M0 0 C2 3 2 3 1.62 5.19 C1.42 5.79 1.21 6.38 1 7 C-1.97 6.5 -1.97 6.5 -5 6 C-5.33 4.68 -5.66 3.36 -6 2 C-3 0 -3 0 0 0 Z " fill="#FAFDFF" transform="translate(423,502)"/>
<path d="M0 0 C1.68 0.29 3.34 0.62 5 1 C5.33 2.65 5.66 4.3 6 6 C4.02 6 2.04 6 0 6 C-0.38 4.34 -0.71 2.68 -1 1 C-0.67 0.67 -0.34 0.34 0 0 Z " fill="#1A7896" transform="translate(391,379)"/>
</svg>
