<svg width="211" height="56" viewBox="0 0 211 56" fill="none" xmlns="http://www.w3.org/2000/svg">
<path d="M76.778 3.184V32.5H70.898V3.184H76.778ZM95.9015 8.896C98.6735 8.896 100.913 9.778 102.621 11.542C104.329 13.278 105.183 15.714 105.183 18.85V32.5H99.3035V19.648C99.3035 17.8 98.8415 16.386 97.9175 15.406C96.9935 14.398 95.7335 13.894 94.1375 13.894C92.5135 13.894 91.2255 14.398 90.2735 15.406C89.3495 16.386 88.8875 17.8 88.8875 19.648V32.5H83.0075V9.232H88.8875V12.13C89.6715 11.122 90.6655 10.338 91.8695 9.778C93.1015 9.19 94.4455 8.896 95.9015 8.896Z" fill="#242A2B"/>
<path d="M120.099 32.878C118.195 32.878 116.487 32.542 114.975 31.87C113.463 31.17 112.259 30.232 111.363 29.056C110.495 27.88 110.019 26.578 109.935 25.15H115.857C115.969 26.046 116.403 26.788 117.159 27.376C117.943 27.964 118.909 28.258 120.057 28.258C121.177 28.258 122.045 28.034 122.661 27.586C123.305 27.138 123.627 26.564 123.627 25.864C123.627 25.108 123.235 24.548 122.451 24.184C121.695 23.792 120.477 23.372 118.797 22.924C117.061 22.504 115.633 22.07 114.513 21.622C113.421 21.174 112.469 20.488 111.657 19.564C110.873 18.64 110.481 17.394 110.481 15.826C110.481 14.538 110.845 13.362 111.573 12.298C112.329 11.234 113.393 10.394 114.765 9.778C116.165 9.162 117.803 8.854 119.679 8.854C122.451 8.854 124.663 9.554 126.315 10.954C127.967 12.326 128.877 14.188 129.045 16.54H123.417C123.333 15.616 122.941 14.888 122.241 14.356C121.569 13.796 120.659 13.516 119.511 13.516C118.447 13.516 117.621 13.712 117.033 14.104C116.473 14.496 116.193 15.042 116.193 15.742C116.193 16.526 116.585 17.128 117.369 17.548C118.153 17.94 119.371 18.346 121.023 18.766C122.703 19.186 124.089 19.62 125.181 20.068C126.273 20.516 127.211 21.216 127.995 22.168C128.807 23.092 129.227 24.324 129.255 25.864C129.255 27.208 128.877 28.412 128.121 29.476C127.393 30.54 126.329 31.38 124.929 31.996C123.557 32.584 121.947 32.878 120.099 32.878ZM144.834 32.878C142.594 32.878 140.578 32.388 138.786 31.408C136.994 30.4 135.58 28.986 134.544 27.166C133.536 25.346 133.032 23.246 133.032 20.866C133.032 18.486 133.55 16.386 134.586 14.566C135.65 12.746 137.092 11.346 138.912 10.366C140.732 9.358 142.762 8.854 145.002 8.854C147.242 8.854 149.272 9.358 151.092 10.366C152.912 11.346 154.34 12.746 155.376 14.566C156.44 16.386 156.972 18.486 156.972 20.866C156.972 23.246 156.426 25.346 155.334 27.166C154.27 28.986 152.814 30.4 150.966 31.408C149.146 32.388 147.102 32.878 144.834 32.878ZM144.834 27.754C145.898 27.754 146.892 27.502 147.816 26.998C148.768 26.466 149.524 25.682 150.084 24.646C150.644 23.61 150.924 22.35 150.924 20.866C150.924 18.654 150.336 16.96 149.16 15.784C148.012 14.58 146.598 13.978 144.918 13.978C143.238 13.978 141.824 14.58 140.676 15.784C139.556 16.96 138.996 18.654 138.996 20.866C138.996 23.078 139.542 24.786 140.634 25.99C141.754 27.166 143.154 27.754 144.834 27.754ZM171.407 27.082L177.287 9.232H183.545L174.935 32.5H167.795L159.227 9.232H165.527L171.407 27.082ZM208.898 20.362C208.898 21.202 208.842 21.958 208.73 22.63H191.72C191.86 24.31 192.448 25.626 193.484 26.578C194.52 27.53 195.794 28.006 197.306 28.006C199.49 28.006 201.044 27.068 201.968 25.192H208.31C207.638 27.432 206.35 29.28 204.446 30.736C202.542 32.164 200.204 32.878 197.432 32.878C195.192 32.878 193.176 32.388 191.384 31.408C189.62 30.4 188.234 28.986 187.226 27.166C186.246 25.346 185.756 23.246 185.756 20.866C185.756 18.458 186.246 16.344 187.226 14.524C188.206 12.704 189.578 11.304 191.342 10.324C193.106 9.344 195.136 8.854 197.432 8.854C199.644 8.854 201.618 9.33 203.354 10.282C205.118 11.234 206.476 12.592 207.428 14.356C208.408 16.092 208.898 18.094 208.898 20.362ZM202.808 18.682C202.78 17.17 202.234 15.966 201.17 15.07C200.106 14.146 198.804 13.684 197.264 13.684C195.808 13.684 194.576 14.132 193.568 15.028C192.588 15.896 191.986 17.114 191.762 18.682H202.808Z" fill="#1CBCCF"/>
<path d="M78.906 42.798V52.5H77.632V44.758L74.538 52.5H73.404L70.296 44.786V52.5H69.022V42.798H70.548L73.992 50.946L77.38 42.798H78.906ZM88.1539 48.23C88.1539 48.5007 88.1352 48.734 88.0979 48.93H81.9519C81.9799 49.8073 82.2272 50.4653 82.6939 50.904C83.1699 51.3427 83.7485 51.562 84.4299 51.562C85.0459 51.562 85.5592 51.408 85.9699 51.1C86.3899 50.7827 86.6465 50.3627 86.7399 49.84H88.0979C88.0045 50.372 87.7945 50.848 87.4679 51.268C87.1505 51.688 86.7352 52.0147 86.2219 52.248C85.7085 52.4813 85.1299 52.598 84.4859 52.598C83.7485 52.598 83.0952 52.4393 82.5259 52.122C81.9565 51.8047 81.5085 51.352 81.1819 50.764C80.8645 50.1667 80.7059 49.4667 80.7059 48.664C80.7059 47.8613 80.8645 47.1613 81.1819 46.564C81.5085 45.9667 81.9565 45.5093 82.5259 45.192C83.0952 44.8747 83.7485 44.716 84.4859 44.716C85.2325 44.716 85.8812 44.8747 86.4319 45.192C86.9919 45.5093 87.4165 45.934 87.7059 46.466C88.0045 46.998 88.1539 47.586 88.1539 48.23ZM86.8659 48.314C86.8939 47.7447 86.8005 47.2687 86.5859 46.886C86.3712 46.5033 86.0772 46.2187 85.7039 46.032C85.3305 45.8453 84.9245 45.752 84.4859 45.752C83.7859 45.752 83.1979 45.9713 82.7219 46.41C82.2459 46.8393 81.9892 47.474 81.9519 48.314H86.8659ZM93.1102 44.716C93.8569 44.716 94.4869 44.9027 95.0002 45.276C95.5229 45.6493 95.8869 46.1487 96.0922 46.774V42.14H97.3662V52.5H96.0922V50.54C95.8869 51.1653 95.5229 51.6647 95.0002 52.038C94.4869 52.4113 93.8569 52.598 93.1102 52.598C92.4289 52.598 91.8222 52.4393 91.2902 52.122C90.7582 51.8047 90.3382 51.352 90.0302 50.764C89.7315 50.1667 89.5822 49.4667 89.5822 48.664C89.5822 47.8613 89.7315 47.1613 90.0302 46.564C90.3382 45.9667 90.7582 45.5093 91.2902 45.192C91.8222 44.8747 92.4289 44.716 93.1102 44.716ZM93.4742 45.85C92.6902 45.85 92.0602 46.102 91.5842 46.606C91.1175 47.1007 90.8842 47.7867 90.8842 48.664C90.8842 49.5413 91.1175 50.232 91.5842 50.736C92.0602 51.2307 92.6902 51.478 93.4742 51.478C93.9782 51.478 94.4262 51.3613 94.8182 51.128C95.2195 50.8947 95.5322 50.568 95.7562 50.148C95.9802 49.7187 96.0922 49.224 96.0922 48.664C96.0922 48.104 95.9802 47.6093 95.7562 47.18C95.5322 46.7507 95.2195 46.424 94.8182 46.2C94.4262 45.9667 93.9782 45.85 93.4742 45.85ZM99.3098 42.56C99.3098 42.3267 99.3891 42.14 99.5478 42C99.7065 41.8507 99.9165 41.776 100.178 41.776C100.439 41.776 100.649 41.8507 100.808 42C100.966 42.14 101.046 42.3267 101.046 42.56C101.046 42.7933 100.966 42.9847 100.808 43.134C100.649 43.274 100.439 43.344 100.178 43.344C99.9165 43.344 99.7065 43.274 99.5478 43.134C99.3891 42.9847 99.3098 42.7933 99.3098 42.56ZM100.808 44.814V52.5H99.5338V44.814H100.808ZM106.398 44.716C107.378 44.716 108.19 44.9773 108.834 45.5C109.478 46.0227 109.875 46.7227 110.024 47.6H108.68C108.587 47.0493 108.33 46.62 107.91 46.312C107.499 45.9947 106.986 45.836 106.37 45.836C105.922 45.836 105.511 45.9387 105.138 46.144C104.774 46.3493 104.48 46.6667 104.256 47.096C104.032 47.516 103.92 48.0387 103.92 48.664C103.92 49.2893 104.032 49.8167 104.256 50.246C104.48 50.666 104.774 50.9787 105.138 51.184C105.511 51.3893 105.922 51.492 106.37 51.492C106.986 51.492 107.499 51.3333 107.91 51.016C108.33 50.6987 108.587 50.2647 108.68 49.714H110.024C109.875 50.6007 109.478 51.3053 108.834 51.828C108.19 52.3413 107.378 52.598 106.398 52.598C105.661 52.598 105.007 52.4393 104.438 52.122C103.869 51.8047 103.421 51.352 103.094 50.764C102.777 50.1667 102.618 49.4667 102.618 48.664C102.618 47.8613 102.777 47.1613 103.094 46.564C103.421 45.9667 103.869 45.5093 104.438 45.192C105.007 44.8747 105.661 44.716 106.398 44.716ZM114.981 44.716C115.728 44.716 116.358 44.9027 116.871 45.276C117.394 45.6493 117.758 46.1487 117.963 46.774V44.814H119.237V52.5H117.963V50.54C117.758 51.1653 117.394 51.6647 116.871 52.038C116.358 52.4113 115.728 52.598 114.981 52.598C114.3 52.598 113.693 52.4393 113.161 52.122C112.629 51.8047 112.209 51.352 111.901 50.764C111.603 50.1667 111.453 49.4667 111.453 48.664C111.453 47.8613 111.603 47.1613 111.901 46.564C112.209 45.9667 112.629 45.5093 113.161 45.192C113.693 44.8747 114.3 44.716 114.981 44.716ZM115.345 45.85C114.561 45.85 113.931 46.102 113.455 46.606C112.989 47.1007 112.755 47.7867 112.755 48.664C112.755 49.5413 112.989 50.232 113.455 50.736C113.931 51.2307 114.561 51.478 115.345 51.478C115.849 51.478 116.297 51.3613 116.689 51.128C117.091 50.8947 117.403 50.568 117.627 50.148C117.851 49.7187 117.963 49.224 117.963 48.664C117.963 48.104 117.851 47.6093 117.627 47.18C117.403 46.7507 117.091 46.424 116.689 46.2C116.297 45.9667 115.849 45.85 115.345 45.85ZM122.679 42.14V52.5H121.405V42.14H122.679ZM136.04 42.63V52.5H134.752V47.936H129.74V52.5H128.466V42.63H129.74V46.9H134.752V42.63H136.04ZM145.288 48.23C145.288 48.5007 145.269 48.734 145.232 48.93H139.086C139.114 49.8073 139.361 50.4653 139.828 50.904C140.304 51.3427 140.882 51.562 141.564 51.562C142.18 51.562 142.693 51.408 143.104 51.1C143.524 50.7827 143.78 50.3627 143.874 49.84H145.232C145.138 50.372 144.928 50.848 144.602 51.268C144.284 51.688 143.869 52.0147 143.356 52.248C142.842 52.4813 142.264 52.598 141.62 52.598C140.882 52.598 140.229 52.4393 139.66 52.122C139.09 51.8047 138.642 51.352 138.316 50.764C137.998 50.1667 137.84 49.4667 137.84 48.664C137.84 47.8613 137.998 47.1613 138.316 46.564C138.642 45.9667 139.09 45.5093 139.66 45.192C140.229 44.8747 140.882 44.716 141.62 44.716C142.366 44.716 143.015 44.8747 143.566 45.192C144.126 45.5093 144.55 45.934 144.84 46.466C145.138 46.998 145.288 47.586 145.288 48.23ZM144 48.314C144.028 47.7447 143.934 47.2687 143.72 46.886C143.505 46.5033 143.211 46.2187 142.838 46.032C142.464 45.8453 142.058 45.752 141.62 45.752C140.92 45.752 140.332 45.9713 139.856 46.41C139.38 46.8393 139.123 47.474 139.086 48.314H144ZM150.244 44.716C150.991 44.716 151.621 44.9027 152.134 45.276C152.657 45.6493 153.021 46.1487 153.226 46.774V44.814H154.5V52.5H153.226V50.54C153.021 51.1653 152.657 51.6647 152.134 52.038C151.621 52.4113 150.991 52.598 150.244 52.598C149.563 52.598 148.956 52.4393 148.424 52.122C147.892 51.8047 147.472 51.352 147.164 50.764C146.865 50.1667 146.716 49.4667 146.716 48.664C146.716 47.8613 146.865 47.1613 147.164 46.564C147.472 45.9667 147.892 45.5093 148.424 45.192C148.956 44.8747 149.563 44.716 150.244 44.716ZM150.608 45.85C149.824 45.85 149.194 46.102 148.718 46.606C148.251 47.1007 148.018 47.7867 148.018 48.664C148.018 49.5413 148.251 50.232 148.718 50.736C149.194 51.2307 149.824 51.478 150.608 51.478C151.112 51.478 151.56 51.3613 151.952 51.128C152.353 50.8947 152.666 50.568 152.89 50.148C153.114 49.7187 153.226 49.224 153.226 48.664C153.226 48.104 153.114 47.6093 152.89 47.18C152.666 46.7507 152.353 46.424 151.952 46.2C151.56 45.9667 151.112 45.85 150.608 45.85ZM157.941 42.14V52.5H156.667V42.14H157.941ZM163.798 51.38V52.5H162.846C162.062 52.5 161.474 52.3133 161.082 51.94C160.699 51.5667 160.508 50.9413 160.508 50.064V45.92H159.36V44.814H160.508V42.896H161.796V44.814H163.784V45.92H161.796V50.092C161.796 50.5867 161.884 50.9273 162.062 51.114C162.248 51.2913 162.566 51.38 163.014 51.38H163.798ZM169.538 44.688C170.434 44.688 171.158 44.9773 171.708 45.556C172.259 46.1253 172.534 46.9513 172.534 48.034V52.5H171.26V48.146C171.26 47.3807 171.064 46.7927 170.672 46.382C170.28 45.9713 169.748 45.766 169.076 45.766C168.376 45.766 167.816 45.9947 167.396 46.452C166.976 46.9 166.766 47.558 166.766 48.426V52.5H165.492V42.14H166.766V46.634C166.962 46.0087 167.308 45.528 167.802 45.192C168.306 44.856 168.885 44.688 169.538 44.688ZM178.03 44.716C179.01 44.716 179.822 44.9773 180.466 45.5C181.11 46.0227 181.507 46.7227 181.656 47.6H180.312C180.219 47.0493 179.962 46.62 179.542 46.312C179.132 45.9947 178.618 45.836 178.002 45.836C177.554 45.836 177.144 45.9387 176.77 46.144C176.406 46.3493 176.112 46.6667 175.888 47.096C175.664 47.516 175.552 48.0387 175.552 48.664C175.552 49.2893 175.664 49.8167 175.888 50.246C176.112 50.666 176.406 50.9787 176.77 51.184C177.144 51.3893 177.554 51.492 178.002 51.492C178.618 51.492 179.132 51.3333 179.542 51.016C179.962 50.6987 180.219 50.2647 180.312 49.714H181.656C181.507 50.6007 181.11 51.3053 180.466 51.828C179.822 52.3413 179.01 52.598 178.03 52.598C177.293 52.598 176.64 52.4393 176.07 52.122C175.501 51.8047 175.053 51.352 174.726 50.764C174.409 50.1667 174.25 49.4667 174.25 48.664C174.25 47.8613 174.409 47.1613 174.726 46.564C175.053 45.9667 175.501 45.5093 176.07 45.192C176.64 44.8747 177.293 44.716 178.03 44.716ZM186.614 44.716C187.36 44.716 187.99 44.9027 188.504 45.276C189.026 45.6493 189.39 46.1487 189.596 46.774V44.814H190.87V52.5H189.596V50.54C189.39 51.1653 189.026 51.6647 188.504 52.038C187.99 52.4113 187.36 52.598 186.614 52.598C185.932 52.598 185.326 52.4393 184.794 52.122C184.262 51.8047 183.842 51.352 183.534 50.764C183.235 50.1667 183.086 49.4667 183.086 48.664C183.086 47.8613 183.235 47.1613 183.534 46.564C183.842 45.9667 184.262 45.5093 184.794 45.192C185.326 44.8747 185.932 44.716 186.614 44.716ZM186.978 45.85C186.194 45.85 185.564 46.102 185.088 46.606C184.621 47.1007 184.388 47.7867 184.388 48.664C184.388 49.5413 184.621 50.232 185.088 50.736C185.564 51.2307 186.194 51.478 186.978 51.478C187.482 51.478 187.93 51.3613 188.322 51.128C188.723 50.8947 189.036 50.568 189.26 50.148C189.484 49.7187 189.596 49.224 189.596 48.664C189.596 48.104 189.484 47.6093 189.26 47.18C189.036 46.7507 188.723 46.424 188.322 46.2C187.93 45.9667 187.482 45.85 186.978 45.85ZM194.311 46.368C194.563 45.836 194.932 45.4253 195.417 45.136C195.903 44.8373 196.481 44.688 197.153 44.688V46.074H196.761C196.043 46.074 195.455 46.2607 194.997 46.634C194.54 46.998 194.311 47.6047 194.311 48.454V52.5H193.037V44.814H194.311V46.368ZM205.62 48.23C205.62 48.5007 205.602 48.734 205.564 48.93H199.418C199.446 49.8073 199.694 50.4653 200.16 50.904C200.636 51.3427 201.215 51.562 201.896 51.562C202.512 51.562 203.026 51.408 203.436 51.1C203.856 50.7827 204.113 50.3627 204.206 49.84H205.564C205.471 50.372 205.261 50.848 204.934 51.268C204.617 51.688 204.202 52.0147 203.688 52.248C203.175 52.4813 202.596 52.598 201.952 52.598C201.215 52.598 200.562 52.4393 199.992 52.122C199.423 51.8047 198.975 51.352 198.648 50.764C198.331 50.1667 198.172 49.4667 198.172 48.664C198.172 47.8613 198.331 47.1613 198.648 46.564C198.975 45.9667 199.423 45.5093 199.992 45.192C200.562 44.8747 201.215 44.716 201.952 44.716C202.699 44.716 203.348 44.8747 203.898 45.192C204.458 45.5093 204.883 45.934 205.172 46.466C205.471 46.998 205.62 47.586 205.62 48.23ZM204.332 48.314C204.36 47.7447 204.267 47.2687 204.052 46.886C203.838 46.5033 203.544 46.2187 203.17 46.032C202.797 45.8453 202.391 45.752 201.952 45.752C201.252 45.752 200.664 45.9713 200.188 46.41C199.712 46.8393 199.456 47.474 199.418 48.314H204.332Z" fill="#A9A9A9"/>
<circle opacity="0.98" cx="18" cy="18.5" r="18" fill="#E8F9FB"/>
<circle opacity="0.55" cx="40" cy="18.5" r="18" fill="#B3EBF2"/>
<ellipse opacity="0.29" cx="29.5" cy="37.5" rx="18.5" ry="18" fill="#01BED5"/>
</svg>
